<svg width="28" height="27" viewBox="0 0 28 27" fill="none" xmlns="http://www.w3.org/2000/svg">
<path d="M20.5588 10.6618C20.5588 15.6741 16.3407 19.8235 11.0294 19.8235C5.71812 19.8235 1.5 15.6741 1.5 10.6618C1.5 5.64939 5.71812 1.5 11.0294 1.5C16.3407 1.5 20.5588 5.64939 20.5588 10.6618Z" stroke="#0A2F35" stroke-width="3"/>
<path d="M19.3322 17.2214L18.1712 16.2715L16.2715 18.5934L17.4325 19.5433L19.3322 17.2214ZM25.5207 26.1609C26.1619 26.6855 27.1069 26.591 27.6315 25.9498C28.1561 25.3087 28.0616 24.3636 27.4204 23.839L25.5207 26.1609ZM17.4325 19.5433L25.5207 26.1609L27.4204 23.839L19.3322 17.2214L17.4325 19.5433Z" fill="#0A2F35"/>
</svg>
