<svg width="34" height="38" viewBox="0 0 34 38" fill="none" xmlns="http://www.w3.org/2000/svg">
<path fill-rule="evenodd" clip-rule="evenodd" d="M17.4032 0.206055C19.7847 0.206055 21.8586 0.732209 23.6063 1.79529C25.2463 2.79221 26.4986 4.21067 27.3401 6.01836C28.1401 7.71682 28.5386 9.64913 28.5386 11.803C28.5386 13.9107 28.0478 15.863 27.0694 17.6337C26.0909 19.4091 24.7494 20.8076 23.074 21.803C21.3726 22.8604 19.4063 23.4136 17.4032 23.3984C15.5832 23.3984 13.8032 22.8707 12.0832 21.8291C10.3863 20.8057 8.96011 19.3895 7.92474 17.6999C6.80012 15.8584 6.23089 13.8845 6.23089 11.7999C6.23089 9.64144 6.6432 7.70452 7.4632 6.02298C8.30935 4.20759 9.57397 2.78605 11.2278 1.79836C12.954 0.732209 15.0186 0.206055 17.4032 0.206055ZM9.31551 24.1984H8.99551L8.68474 24.2107C7.6432 24.2891 6.5832 24.7645 5.50012 25.5984C4.49397 26.3707 3.54012 27.3784 2.63551 28.6184C1.81936 29.736 1.15077 30.9543 0.646277 32.243C0.137046 33.5707 -0.0429537 34.7091 0.157046 35.6799C0.449354 37.0414 1.45089 37.7937 2.83397 37.7937H30.397L30.6524 37.7861C31.9017 37.6984 32.797 36.9584 33.0724 35.6937C33.274 34.7091 33.0955 33.5707 32.5863 32.243C32.083 30.9565 31.416 29.7404 30.6017 28.6245C29.6894 27.3784 28.737 26.3707 27.7324 25.5984C26.5078 24.6784 25.3355 24.1984 24.2001 24.1984H23.8801L23.1094 24.6753C20.4924 26.2445 18.3124 27.0153 16.5986 27.0153C14.7755 27.0153 12.4294 26.1461 9.59089 24.3691L9.31551 24.1984ZM24.2417 26.763L24.4786 26.6168L24.617 26.6399L24.8386 26.6968C25.2924 26.8322 25.8032 27.1061 26.3724 27.5337C27.1801 28.1537 27.9801 28.9999 28.7586 30.0661C29.4878 31.0814 30.0509 32.103 30.4432 33.1291C30.7986 34.0553 30.9078 34.7461 30.8201 35.1753C30.7786 35.3691 30.7447 35.3922 30.3986 35.3922H2.72012C2.48012 35.3845 2.45089 35.343 2.41243 35.1645C2.32628 34.7461 2.43551 34.0568 2.79089 33.1291C3.21994 32.0378 3.78769 31.0063 4.48012 30.0599C5.25397 28.9999 6.05397 28.1553 6.87243 27.5261L7.1432 27.3261L7.40474 27.1522C7.83551 26.8814 8.22935 26.7137 8.58628 26.6399L8.72012 26.6184L8.95551 26.763C11.8863 28.5199 14.4247 29.4137 16.5986 29.4137C18.7724 29.4137 21.3109 28.5199 24.2417 26.763ZM12.3924 3.87067C13.7555 3.02913 15.414 2.60452 17.4032 2.60452C19.3924 2.60452 21.0647 3.02913 22.4417 3.86606C23.6832 4.62144 24.6186 5.68144 25.2647 7.06913C25.9078 8.43067 26.2309 10.003 26.2309 11.8014C26.2309 13.4968 25.8447 15.0353 25.0678 16.4414C24.333 17.8036 23.2418 18.9405 21.9109 19.7307C20.5597 20.5741 18.9959 21.0144 17.4032 20.9999C16.0032 20.9999 14.6232 20.5891 13.2447 19.7537C11.8669 18.9256 10.7086 17.7778 9.86782 16.4076C8.97859 14.9507 8.53858 13.423 8.53858 11.8014C8.53858 10.0076 8.87089 8.44144 9.53089 7.09067C10.1847 5.68452 11.1278 4.62759 12.3924 3.87067Z" fill="white"/>
</svg>
