<svg width="23" height="18" viewBox="0 0 23 18" fill="none" xmlns="http://www.w3.org/2000/svg">
<path fill-rule="evenodd" clip-rule="evenodd" d="M21.3599 0H0.899011C0.403133 0 0 0.576257 0 1.28607C0 1.99588 0.403133 2.57214 0.899011 2.57214H21.3599C21.8557 2.57214 22.2589 1.99588 22.2589 1.28607C22.2589 0.576257 21.8557 0 21.3599 0ZM21.3599 7.71393H0.899011C0.403133 7.71393 0 8.29019 0 9C0 9.70981 0.403133 10.2861 0.899011 10.2861H21.3599C21.8557 10.2861 22.2589 9.70981 22.2589 9C22.2589 8.29019 21.8557 7.71393 21.3599 7.71393ZM0.899011 15.4279H21.3599C21.8557 15.4279 22.2589 16.0041 22.2589 16.7139C22.2589 17.4237 21.8557 18 21.3599 18H0.899011C0.403133 18 0 17.4237 0 16.7139C0 16.0041 0.403133 15.4279 0.899011 15.4279Z" fill="white"/>
</svg>
