<?xml version="1.0" standalone="no"?>
<!DOCTYPE svg PUBLIC "-//W3C//DTD SVG 20010904//EN"
 "http://www.w3.org/TR/2001/REC-SVG-20010904/DTD/svg10.dtd">
<svg version="1.0" xmlns="http://www.w3.org/2000/svg"
 width="608.000000pt" height="608.000000pt" viewBox="0 0 608.000000 608.000000"
 preserveAspectRatio="xMidYMid meet">
<metadata>
Created by potrace 1.14, written by Peter Selinger 2001-2017
</metadata>
<g transform="translate(0.000000,608.000000) scale(0.100000,-0.100000)"
fill="#000000" stroke="none">
<path d="M2946 5413 c2 -7 -2 -13 -8 -13 -6 0 -5 -7 3 -17 12 -16 12 -17 -2
-6 -9 7 -20 9 -24 5 -5 -4 -5 -1 -1 6 4 6 2 12 -4 12 -6 0 -8 5 -5 10 3 6 1
10 -5 10 -6 0 -8 -13 -5 -32 4 -24 3 -29 -5 -18 -5 8 -10 11 -10 6 0 -5 -7 -3
-15 4 -8 7 -12 17 -8 23 3 6 1 7 -5 3 -9 -5 -9 -13 -2 -26 7 -13 7 -21 0 -25
-5 -3 -10 -3 -10 1 0 3 -8 0 -17 -7 -16 -12 -16 -11 0 8 15 17 16 23 5 29 -7
4 -10 4 -6 0 4 -5 -4 -18 -17 -31 -14 -12 -22 -25 -18 -28 3 -4 -4 -5 -16 -2
-19 3 -26 -5 -22 -27 0 -5 -4 -8 -10 -8 -6 0 -8 7 -5 16 8 21 -2 36 -17 27 -7
-4 -16 -8 -22 -8 -5 0 -9 -13 -8 -28 1 -15 -2 -27 -8 -27 -6 0 -7 5 -4 10 3 6
0 10 -7 11 -7 0 -20 2 -29 4 -13 2 -15 -5 -13 -31 1 -19 -1 -36 -6 -39 -4 -3
-7 3 -6 12 0 9 -5 18 -13 21 -8 3 -11 0 -7 -6 3 -6 1 -14 -5 -18 -7 -4 -9 -3
-6 3 4 6 0 14 -9 17 -8 3 -13 2 -10 -3 11 -18 -27 -21 -41 -4 -13 16 -13 16
-3 -5 9 -18 8 -23 -5 -28 -8 -3 -12 -10 -9 -15 3 -5 0 -9 -5 -9 -14 0 -14 13
1 28 9 9 9 12 0 12 -7 0 -12 -5 -12 -11 0 -5 -5 -7 -11 -4 -13 9 -8 -27 6 -37
6 -4 -7 -6 -28 -4 -21 1 -41 -2 -44 -7 -3 -6 -1 -7 5 -3 6 3 14 1 18 -5 4 -8
3 -9 -4 -5 -7 4 -12 1 -12 -6 0 -9 -3 -9 -10 2 -8 13 -11 12 -23 -4 -13 -17
-14 -17 -20 -2 -4 9 -3 15 1 12 11 -6 47 23 38 31 -4 4 -12 0 -17 -9 -5 -10
-16 -15 -24 -11 -17 6 -17 -20 0 -47 8 -13 7 -13 -10 0 -17 14 -18 13 -12 -3
5 -14 3 -16 -11 -9 -9 5 -24 7 -32 4 -13 -5 -13 -3 -1 11 15 19 36 23 25 5 -4
-7 -3 -8 4 -4 20 12 13 26 -13 24 -13 -1 -22 -4 -20 -7 3 -2 0 -11 -7 -18 -9
-11 -9 -17 3 -25 11 -8 10 -9 -4 -4 -12 4 -21 -1 -27 -17 -5 -13 -9 -16 -9 -7
-1 9 4 21 10 27 8 8 7 13 -2 18 -8 5 -10 4 -5 -4 4 -6 0 -14 -8 -17 -9 -3 -16
-12 -16 -20 0 -8 -5 -14 -11 -14 -5 0 -8 -4 -5 -9 3 -5 -2 -15 -12 -22 -15
-12 -16 -12 -5 2 13 16 8 29 -9 29 -5 0 -6 -6 -2 -12 6 -10 5 -10 -8 -1 -8 7
-18 10 -21 6 -4 -3 -7 -1 -7 5 0 7 -6 12 -12 12 -7 -1 -4 -8 8 -18 16 -14 18
-20 9 -29 -10 -9 -15 -6 -24 10 -6 12 -10 14 -7 5 5 -18 -16 -31 -54 -31 -15
0 -24 5 -22 12 1 7 -2 10 -7 7 -5 -3 -7 -15 -4 -26 4 -16 9 -18 24 -10 15 9
17 7 13 -5 -4 -9 -9 -13 -12 -11 -3 3 -12 0 -20 -7 -11 -8 -14 -8 -9 0 4 6 3
14 -3 18 -5 3 -10 2 -10 -3 0 -5 -15 -17 -34 -26 -41 -19 -55 -21 -38 -4 7 7
20 13 29 13 8 0 22 11 30 25 l15 25 -20 -25 c-11 -14 -24 -22 -28 -18 -4 4
-18 -1 -32 -12 -13 -11 -28 -17 -33 -14 -5 3 -8 0 -7 -8 2 -8 -4 -12 -14 -10
-10 2 -18 -1 -18 -6 0 -5 -6 -9 -12 -10 -7 0 -22 -3 -33 -6 -11 -2 -24 -5 -30
-5 -5 -1 -4 -5 4 -10 7 -5 12 -14 9 -21 -3 -9 -9 -8 -21 4 -15 15 -17 15 -17
2 0 -9 -5 -16 -11 -16 -5 0 -7 6 -3 13 4 7 3 9 -2 4 -5 -5 -9 -14 -9 -20 0 -7
-13 -11 -28 -10 -28 2 -36 -10 -15 -23 7 -5 8 -3 3 7 -7 11 -6 12 7 2 8 -7 19
-9 23 -5 5 4 5 1 1 -6 -4 -7 -11 -10 -16 -7 -5 3 -14 -3 -20 -12 -10 -15 -11
-15 -6 -1 2 9 -2 19 -10 22 -10 4 -12 2 -8 -6 5 -8 2 -9 -9 -5 -19 7 -22 -4
-6 -20 8 -8 7 -13 -2 -18 -8 -6 -10 -4 -4 5 6 10 4 12 -8 7 -9 -3 -24 1 -34
11 -15 15 -16 15 -11 1 4 -9 1 -22 -5 -29 -9 -10 -7 -11 10 -6 12 4 24 2 29
-5 4 -8 3 -9 -5 -5 -6 4 -18 2 -26 -4 -9 -8 -15 -8 -15 -2 0 13 -27 9 -42 -6
-8 -8 -17 -8 -31 -1 -15 9 -18 8 -12 -2 6 -9 3 -10 -11 -5 -34 13 -38 11 -39
-21 -1 -39 -10 -50 -28 -35 -8 7 -16 9 -20 6 -8 -9 -27 32 -19 41 4 5 1 5 -5
1 -10 -6 -9 -14 3 -38 9 -16 11 -28 6 -24 -5 3 -15 -1 -22 -9 -7 -8 -16 -12
-21 -9 -5 3 -9 -1 -9 -8 0 -8 -5 -6 -11 5 -6 10 -7 24 -2 30 4 7 0 4 -11 -8
-10 -11 -26 -20 -36 -20 -21 0 -35 -11 -35 -27 0 -6 -6 -13 -13 -16 -7 -2 -10
2 -6 12 4 10 1 16 -7 16 -7 0 -9 -3 -6 -7 4 -3 2 -12 -4 -19 -7 -8 -6 -14 2
-20 8 -5 9 -3 4 7 -8 12 -6 12 8 0 18 -14 23 -26 8 -16 -5 3 -12 1 -16 -5 -3
-5 -12 -10 -18 -10 -9 0 -9 2 -1 8 9 5 8 11 -2 20 -10 9 -14 9 -14 1 0 -8 -5
-7 -17 2 -17 13 -17 13 -1 -7 22 -25 23 -45 3 -38 -8 4 -15 2 -15 -2 1 -16 38
-54 52 -54 11 0 11 2 -1 9 -9 6 -10 11 -2 15 11 7 13 0 14 -41 0 -25 7 -29 24
-12 17 17 35 1 23 -21 -16 -30 -11 -48 6 -25 16 20 16 19 9 -4 -5 -16 -4 -21
4 -17 6 4 11 2 11 -4 0 -6 -8 -9 -18 -6 -12 4 -19 1 -19 -7 0 -8 7 -12 17 -10
10 3 21 -5 28 -22 15 -33 15 -65 0 -65 -6 0 -8 -3 -5 -6 4 -4 15 -1 24 7 10 7
15 9 11 5 -4 -5 -4 -14 2 -20 5 -7 5 -18 1 -25 -6 -9 -11 -10 -15 -2 -4 6 -2
11 5 11 7 0 10 2 7 5 -8 8 -38 -6 -38 -18 0 -6 3 -7 7 -4 3 4 12 2 20 -4 10
-9 10 -15 2 -25 -8 -10 -8 -14 0 -14 6 0 12 5 12 10 3 25 4 29 9 33 3 3 5 -17
6 -44 0 -27 -3 -49 -7 -49 -4 0 -6 8 -4 18 2 10 -2 19 -9 19 -7 0 -12 -11 -12
-23 0 -12 4 -22 9 -21 5 1 12 -4 15 -12 3 -9 0 -11 -9 -7 -8 4 -6 1 4 -7 27
-23 20 -31 -10 -11 -20 13 -25 13 -16 2 7 -8 9 -19 5 -23 -4 -5 -2 -5 4 -2 15
9 24 -59 9 -74 -7 -7 -4 -8 10 -4 16 6 17 5 5 -4 -19 -13 -43 -14 -35 -1 3 5
1 18 -5 27 -10 16 -10 15 -5 -4 4 -15 0 -25 -12 -32 -14 -8 -15 -11 -3 -12 8
-1 19 -1 23 0 5 1 5 -3 2 -9 -4 -6 -14 -9 -22 -6 -9 4 -18 -4 -24 -24 -6 -16
-19 -32 -30 -35 -10 -4 -19 -10 -19 -14 0 -13 -63 -11 -79 2 -11 9 -13 9 -8 0
4 -7 -1 -14 -13 -18 -11 -3 -20 -11 -20 -16 0 -5 11 -2 24 6 18 12 26 13 32 4
5 -8 3 -9 -6 -4 -10 6 -12 4 -6 -10 5 -14 4 -15 -6 -7 -9 7 -18 6 -32 -3 -18
-13 -50 -10 -41 4 2 4 -2 8 -10 8 -11 0 -12 -4 -4 -13 7 -8 7 -14 0 -18 -6 -4
-8 -14 -5 -24 5 -15 4 -15 -6 1 -9 14 -15 16 -26 6 -7 -6 -12 -15 -9 -19 3 -5
-17 -7 -44 -7 -43 2 -48 0 -40 -15 6 -11 5 -19 -3 -24 -7 -4 -8 -3 -4 5 6 8 0
11 -21 8 -17 -2 -33 2 -41 12 -11 14 -11 13 -2 -6 9 -19 8 -23 -5 -23 -10 0
-13 5 -9 12 4 7 3 8 -4 4 -6 -4 -8 -14 -5 -23 4 -9 2 -14 -3 -11 -5 4 -18 0
-29 -8 -11 -8 -14 -14 -6 -14 10 0 10 -4 3 -13 -7 -8 -7 -17 2 -30 15 -19 31
-24 19 -4 -8 13 -13 60 -5 52 3 -3 14 2 24 12 10 9 18 12 18 7 0 -5 5 -2 11 6
9 13 10 13 6 0 -2 -8 -10 -14 -16 -12 -14 3 -14 -11 -1 -24 8 -8 5 -15 -7 -25
-16 -13 -17 -12 -5 3 9 12 10 18 2 23 -29 18 -35 -30 -7 -51 16 -12 17 -15 5
-11 -10 4 -18 2 -18 -4 0 -6 -4 -8 -8 -5 -5 3 -9 -1 -9 -8 0 -7 6 -13 13 -13
7 0 11 4 8 9 -9 15 6 8 28 -12 12 -10 25 -17 29 -14 5 3 5 -6 -1 -20 -7 -21
-6 -26 5 -26 8 0 15 -5 15 -11 0 -5 4 -7 10 -4 5 3 7 0 4 -9 -3 -8 -13 -12
-22 -10 -14 5 -14 4 1 -6 9 -6 14 -16 11 -22 -4 -7 -2 -8 4 -4 7 4 12 2 12 -5
0 -7 3 -9 6 -6 4 4 2 13 -5 20 -9 11 -7 17 6 28 16 13 17 12 5 -3 -9 -11 -10
-18 -2 -23 5 -3 10 -15 10 -25 0 -13 6 -18 18 -15 11 2 19 -3 19 -11 0 -10 -4
-11 -14 -3 -9 9 -13 8 -13 0 0 -7 -4 -10 -9 -7 -5 3 -15 -2 -22 -11 -12 -15
-12 -16 1 -8 29 18 40 14 36 -11 -3 -13 -7 -28 -10 -33 -4 -5 -1 -13 5 -17 8
-4 9 -3 5 4 -4 7 -1 12 8 12 18 0 21 -11 6 -26 -7 -7 -6 -11 4 -11 8 0 13 3
11 7 -2 4 2 7 10 7 8 0 13 -3 10 -5 -3 -3 3 -11 13 -19 15 -13 15 -13 -5 -3
-15 7 -23 7 -23 1 0 -6 -8 -7 -17 -4 -17 6 -17 6 -1 -10 19 -19 33 -23 22 -6
-3 6 5 3 20 -6 31 -20 35 -30 6 -15 -17 9 -20 8 -20 -12 -1 -21 -2 -22 -14 -5
-12 15 -14 15 -19 2 -4 -8 -3 -14 1 -12 16 5 53 -32 50 -49 -2 -11 2 -18 9
-16 18 3 16 -15 -2 -22 -8 -3 -15 -13 -15 -21 0 -9 -4 -14 -9 -10 -5 3 -13 0
-17 -6 -4 -8 -3 -9 4 -5 7 4 12 2 12 -5 0 -10 3 -10 12 -1 7 7 17 12 23 12 5
0 -1 -9 -15 -20 -20 -15 -21 -20 -8 -20 9 0 20 -4 23 -10 4 -6 -1 -7 -11 -3
-11 4 -15 3 -10 -5 3 -6 1 -14 -5 -18 -7 -4 -10 -3 -6 2 3 5 -1 20 -9 34 -10
20 -13 21 -14 7 0 -10 -4 -15 -10 -12 -5 3 -10 1 -10 -5 0 -7 7 -10 15 -6 8 3
15 0 15 -7 0 -20 -16 -38 -31 -35 -8 2 -13 -3 -11 -11 3 -12 0 -12 -12 -2 -8
7 -32 11 -53 9 -26 -3 -42 1 -51 11 -10 14 -11 14 -5 -3 4 -12 3 -17 -4 -13
-5 3 -24 -10 -41 -29 -27 -31 -34 -34 -53 -24 -15 9 -19 9 -15 1 11 -17 -24
-26 -36 -10 -8 11 -9 10 -4 -4 4 -12 -1 -21 -17 -27 -12 -5 -17 -9 -11 -9 7
-1 14 -10 17 -21 3 -10 0 -18 -5 -17 -6 1 -13 -4 -16 -12 -3 -10 0 -12 14 -7
15 6 16 5 7 -5 -10 -10 -15 -9 -28 1 -15 13 -21 32 -7 27 4 -1 8 2 10 8 7 21
-15 14 -26 -9 -8 -17 -7 -27 1 -36 9 -10 9 -14 0 -17 -7 -2 -9 -12 -6 -21 3
-12 2 -13 -4 -5 -10 13 -53 6 -53 -9 0 -5 9 -4 20 2 14 7 20 7 20 0 0 -5 -5
-10 -11 -10 -5 0 -7 -4 -4 -10 3 -5 0 -7 -7 -5 -13 5 -17 -6 -19 -62 -1 -17
-4 -19 -14 -10 -10 9 -9 17 2 37 14 22 14 23 0 7 -11 -14 -16 -15 -20 -5 -2 7
-3 5 -2 -4 2 -10 -1 -18 -7 -18 -5 0 -2 -7 6 -16 24 -23 19 -28 -8 -10 -16 10
-27 12 -31 6 -4 -6 -1 -9 6 -8 6 2 14 -3 16 -9 3 -8 -3 -13 -14 -13 -14 0 -15
-2 -4 -9 7 -5 9 -11 4 -14 -11 -7 -11 -36 0 -54 5 -7 -3 -18 -20 -27 -24 -13
-25 -15 -7 -16 11 0 25 5 32 12 7 7 12 9 12 4 0 -14 -27 -35 -36 -28 -5 4 0
-3 11 -16 16 -20 16 -22 2 -16 -10 3 -17 1 -17 -6 0 -6 -5 -8 -12 -4 -10 6
-10 4 0 -8 9 -11 10 -18 2 -23 -5 -3 -10 -1 -10 6 0 7 -3 9 -6 6 -4 -4 -1 -14
7 -24 12 -15 12 -16 -6 -10 -19 7 -19 6 -2 -7 11 -8 26 -12 35 -9 11 5 13 3 7
-7 -6 -10 -4 -12 9 -7 10 4 15 3 11 -3 -3 -5 -19 -7 -36 -5 -24 3 -28 1 -20
-9 6 -7 8 -16 4 -19 -3 -4 -1 -7 6 -7 7 0 11 7 8 14 -4 10 -1 13 8 9 11 -4 12
-10 4 -24 -5 -11 -15 -17 -22 -13 -7 4 -4 -1 5 -11 15 -16 15 -20 1 -44 l-15
-26 20 25 c12 14 17 29 13 35 -5 6 0 19 11 30 14 14 19 16 16 5 -2 -8 -7 -18
-13 -22 -6 -5 -4 -12 5 -18 10 -6 11 -10 3 -10 -7 0 -13 -5 -13 -11 0 -6 9 -8
21 -4 15 5 19 4 15 -4 -4 -6 -16 -11 -27 -11 -10 0 -19 -4 -19 -9 0 -4 10 -7
23 -6 15 2 24 -2 24 -11 0 -10 -4 -11 -13 -3 -9 8 -11 5 -7 -10 3 -13 11 -18
21 -14 14 4 14 3 3 -5 -8 -6 -21 -8 -30 -5 -14 4 -14 4 -1 -6 8 -6 24 -8 35
-5 15 4 17 3 6 -5 -8 -5 -16 -20 -17 -33 -2 -13 0 -17 2 -10 3 6 11 9 17 5 8
-5 8 -2 0 8 -10 13 -10 16 1 16 17 0 15 -19 -4 -43 -12 -16 -12 -17 0 -6 20
17 35 15 20 -3 -12 -14 -10 -15 13 -11 15 2 30 -1 33 -7 4 -7 4 -9 -1 -5 -4 4
-15 2 -23 -5 -13 -10 -14 -9 -7 2 5 10 4 12 -4 7 -6 -4 -9 -12 -5 -17 3 -5 10
-7 15 -4 5 4 9 0 9 -7 0 -10 3 -9 11 2 8 12 9 10 4 -9 -5 -17 -4 -21 5 -16 10
6 11 1 7 -17 -5 -18 -2 -30 10 -39 11 -10 14 -10 9 -2 -5 9 0 12 18 11 13 -1
24 -7 23 -13 -1 -5 7 -9 17 -7 18 3 18 3 2 -13 -16 -16 -15 -19 16 -51 34 -35
50 -46 28 -19 -7 9 -10 19 -6 22 4 4 11 1 15 -6 7 -11 10 -11 15 0 3 8 4 5 1
-6 -4 -16 0 -21 15 -21 11 0 20 5 20 11 0 5 5 2 11 -7 5 -9 16 -15 24 -12 18
7 46 -36 40 -65 -3 -18 -2 -21 10 -11 10 9 16 7 25 -7 10 -16 11 -16 6 -1 -3
10 -1 20 4 23 10 6 14 -13 11 -45 -1 -11 1 -11 9 3 6 9 8 23 4 30 -5 9 -4 9 6
0 7 -6 18 -10 24 -9 6 2 8 1 4 -1 -14 -8 -8 -25 7 -20 8 4 17 2 20 -3 4 -6 14
-6 28 1 21 10 21 9 3 -5 -10 -9 -23 -13 -29 -9 -6 3 -7 1 -3 -6 4 -6 18 -9 31
-7 14 3 27 0 31 -5 3 -5 10 -7 15 -4 5 4 9 2 9 -3 0 -11 -30 -25 -38 -17 -3 3
0 5 7 5 7 0 9 5 6 11 -5 6 -12 4 -22 -8 -13 -16 -14 -16 -9 -1 3 12 1 15 -10
11 -17 -6 -5 -25 18 -29 7 -1 26 -5 41 -7 25 -5 27 -3 22 16 -6 21 -5 21 6 3
10 -16 9 -21 -5 -31 -15 -11 -15 -13 -1 -19 9 -3 13 -2 10 4 -4 6 10 9 35 7
41 -2 51 -10 25 -20 -8 -4 -17 -2 -20 3 -9 15 -22 12 -29 -6 -5 -14 -4 -15 9
-4 8 7 15 8 15 4 0 -5 10 -15 23 -23 20 -13 21 -13 8 2 -7 10 -9 17 -3 17 19
0 32 -26 20 -38 -9 -9 -9 -12 0 -12 7 0 12 5 12 12 0 6 3 8 7 5 3 -4 13 -1 21
6 13 9 14 9 8 0 -4 -7 -9 -22 -11 -34 -3 -17 -2 -19 10 -9 8 7 13 15 12 18 -1
4 1 8 6 10 18 6 27 1 27 -15 0 -15 -1 -15 -13 1 -12 16 -13 16 -13 -2 0 -15 6
-19 24 -16 17 4 22 1 16 -8 -6 -10 -3 -9 9 1 9 7 17 9 17 4 0 -5 7 -10 15 -11
8 -1 22 -3 30 -4 18 -2 11 -11 -10 -14 -8 -1 -15 1 -15 5 0 4 -7 8 -15 8 -21
0 -19 -17 3 -18 9 -1 20 -1 25 0 4 0 7 -7 7 -16 0 -15 2 -15 14 2 12 17 15 18
30 3 17 -18 21 -38 8 -38 -5 0 -9 -7 -9 -15 0 -23 14 -18 22 7 4 13 7 26 7 29
-1 3 5 6 12 6 13 0 16 -12 17 -56 1 -18 3 -21 10 -10 8 13 13 6 10 -13 0 -4 7
-4 16 -1 10 4 14 2 10 -4 -3 -5 0 -10 7 -10 11 0 12 4 3 18 -6 10 -15 17 -20
16 -5 -1 -12 4 -14 11 -8 21 15 13 32 -10 13 -20 17 -21 26 -8 8 12 9 10 4 -7
-3 -12 -1 -24 5 -28 6 -3 8 -11 5 -16 -4 -5 2 -6 12 -2 16 6 17 5 3 -13 -11
-15 -11 -16 0 -7 19 18 35 16 21 -1 -10 -11 -9 -14 3 -12 30 4 28 16 -8 37
-20 11 -33 25 -30 30 3 5 7 9 10 9 3 0 2 -5 -2 -11 -4 -8 1 -9 17 -4 19 5 21
4 9 -4 -13 -10 -13 -11 0 -12 8 -1 22 -1 30 0 13 2 13 1 0 -8 -14 -10 -7 -15
13 -12 4 1 3 -8 -3 -20 -9 -16 -9 -24 0 -33 8 -8 10 -7 5 6 -4 11 1 20 15 28
12 6 24 9 28 6 3 -3 0 -6 -6 -6 -6 0 -9 -8 -6 -17 5 -16 4 -16 -6 -3 -10 13
-11 13 -7 0 5 -17 38 -14 49 3 4 7 6 -3 3 -21 -2 -22 0 -30 7 -26 7 5 9 2 6
-8 -4 -8 0 -15 8 -15 7 0 11 4 9 8 -7 10 5 39 16 39 5 0 8 -6 6 -12 -1 -7 4
-12 11 -11 6 2 12 -2 12 -8 0 -6 -7 -9 -15 -5 -8 3 -15 1 -15 -4 0 -14 43 -12
60 3 12 10 12 9 3 -3 -5 -8 -10 -23 -10 -32 0 -14 3 -15 14 -7 16 14 17 23 1
13 -7 -4 -8 -3 -4 4 11 17 29 15 22 -3 -19 -46 -19 -51 -4 -31 19 24 47 29 54
11 3 -8 13 -11 22 -8 15 4 15 3 2 -6 -13 -9 -13 -11 0 -12 8 -1 20 -2 25 -4 6
-1 14 -3 18 -3 4 -1 3 -12 -4 -23 -6 -12 -7 -19 -1 -15 11 7 25 -21 17 -34 -3
-5 0 -12 7 -16 7 -4 10 -4 6 1 -4 4 -3 17 3 28 8 14 8 18 0 13 -7 -5 -8 -1 -4
10 5 13 3 15 -8 9 -8 -5 -11 -4 -6 0 14 16 36 14 30 -3 -5 -11 -3 -13 7 -7 9
5 11 4 6 -3 -4 -7 -1 -12 8 -12 9 0 16 -5 16 -10 0 -7 -6 -7 -18 -1 -14 7 -19
6 -19 -3 0 -7 7 -13 16 -12 9 1 16 -4 16 -11 0 -6 4 -15 9 -20 5 -5 6 -3 2 4
-4 7 -3 13 1 13 5 0 15 -6 22 -13 11 -9 13 -9 7 1 -4 6 -2 12 3 12 6 0 11 -7
11 -16 0 -8 5 -12 10 -9 6 4 8 11 5 16 -4 5 -2 9 4 9 5 0 8 -13 6 -28 -4 -35
9 -62 19 -37 3 9 11 13 17 10 6 -4 8 -13 5 -21 -3 -8 0 -11 9 -8 8 4 12 17 9
36 -2 17 -1 28 3 24 3 -3 7 -16 8 -28 1 -12 7 -24 15 -26 8 -3 10 0 5 7 -5 9
-1 9 14 -1 12 -7 21 -17 21 -22 0 -4 -6 -4 -13 2 -9 8 -17 8 -27 0 -12 -8 -12
-9 3 -4 11 3 20 0 24 -9 3 -10 9 -12 17 -7 14 12 47 12 40 0 -3 -4 0 -8 6 -8
6 0 8 -5 5 -11 -5 -6 -11 -4 -19 7 -10 13 -15 14 -21 4 -5 -9 -4 -11 3 -6 7 4
12 1 12 -9 0 -12 6 -15 19 -10 16 5 19 2 15 -17 -4 -21 -4 -21 4 -3 5 11 8 25
7 30 -1 6 0 7 2 3 3 -5 10 -8 17 -8 7 0 18 -12 25 -26 7 -17 17 -24 26 -20 8
3 15 1 15 -5 0 -6 4 -8 9 -5 5 3 20 -3 34 -14 31 -25 38 -25 31 -2 -5 14 -4
14 4 2 8 -10 8 -18 0 -27 -12 -15 -32 -18 -23 -4 3 5 0 13 -6 17 -8 4 -9 3 -5
-4 4 -7 1 -12 -6 -12 -8 0 -6 -4 4 -11 12 -7 24 -6 38 1 11 6 20 8 20 4 0 -3
8 0 18 7 15 13 16 12 4 -3 -8 -10 -19 -16 -24 -15 -6 1 -13 -5 -15 -13 -3 -9
-1 -11 4 -5 4 6 17 12 27 13 17 3 18 2 6 -12 -12 -15 -10 -16 14 -6 35 13 36
13 36 -5 0 -8 5 -15 11 -15 8 0 8 -4 0 -14 -8 -10 -9 -16 -1 -21 10 -6 14 1
11 18 -1 5 4 7 11 4 7 -2 12 -11 12 -20 -1 -8 5 -14 15 -12 9 1 28 -4 44 -12
15 -7 27 -10 27 -6 0 5 5 1 11 -7 8 -12 10 -12 7 -1 -2 8 -12 15 -22 17 -10 1
-24 8 -30 15 -8 9 -8 10 2 4 8 -4 19 0 27 11 13 18 13 18 12 0 -1 -10 4 -21
12 -24 8 -3 11 0 7 7 -5 7 -1 9 10 4 11 -4 15 -3 10 5 -4 7 1 10 14 7 11 -2
24 3 29 12 7 14 10 13 15 -5 4 -12 12 -22 17 -22 13 0 11 14 -3 28 -9 9 -6 11
10 7 16 -3 22 1 22 13 0 15 2 15 10 2 9 -14 15 -7 11 14 -1 5 5 4 13 -4 13
-10 19 -10 33 1 11 10 14 10 9 2 -4 -7 -3 -13 2 -13 6 0 12 6 15 14 3 8 14 13
24 11 10 -1 24 2 31 8 6 5 12 6 12 1 0 -5 5 -2 11 6 7 10 9 11 7 2 -2 -8 -7
-12 -11 -10 -11 4 -31 -31 -23 -39 3 -4 6 -1 6 6 0 8 7 10 19 6 11 -3 22 -1
26 4 4 7 0 8 -11 4 -15 -6 -15 -4 1 20 19 30 27 35 19 12 -4 -8 -1 -15 4 -15
6 0 12 8 14 17 3 15 4 15 21 -1 10 -11 17 -13 17 -5 0 6 -8 18 -17 25 -17 12
-16 13 4 8 12 -4 24 -12 27 -20 4 -11 11 -12 23 -6 10 5 25 7 33 5 9 -3 11 -1
5 4 -5 4 -11 19 -12 33 -2 22 -1 22 16 -9 14 -27 19 -30 24 -17 4 10 3 15 -3
11 -6 -3 -10 -1 -10 4 0 6 7 11 15 11 8 0 15 -5 15 -11 0 -6 7 -3 16 5 8 9 19
14 24 11 5 -3 12 0 15 6 5 7 16 2 33 -13 22 -18 23 -19 9 -2 -9 11 -14 24 -10
29 5 4 2 5 -4 1 -7 -4 -13 -2 -13 4 0 7 6 10 13 7 6 -2 20 0 29 4 11 6 19 5
24 -3 4 -6 3 -8 -3 -5 -6 4 -16 0 -23 -8 -9 -10 -9 -15 -1 -15 6 0 11 4 11 10
0 5 6 9 13 7 6 -1 11 6 9 15 -2 13 2 16 14 11 10 -4 15 -2 11 4 -3 5 3 9 16 8
30 -3 42 5 26 17 -11 8 -10 9 3 5 9 -3 19 -3 21 1 4 7 2 -1 -5 -28 -3 -8 -3
-12 -1 -8 2 4 12 4 21 1 15 -4 15 -3 2 6 -8 6 -13 11 -10 12 3 0 15 2 28 5 13
2 21 0 18 -4 -3 -5 1 -9 9 -9 11 0 12 4 4 14 -9 10 -6 13 15 11 14 -1 26 -7
26 -13 0 -5 5 -2 11 8 7 12 17 16 32 12 16 -5 18 -4 8 3 -11 8 -11 11 0 15 8
4 5 5 -6 4 -11 -1 -23 -6 -27 -12 -12 -15 -10 7 2 25 5 8 10 11 10 5 0 -5 11
-11 25 -11 22 -2 24 0 13 14 -12 14 -11 14 9 2 12 -8 20 -17 17 -21 -2 -4 1
-11 8 -15 7 -4 10 -4 6 1 -4 4 -2 15 5 23 8 11 8 14 0 9 -6 -4 -14 -3 -17 2
-4 5 -2 12 3 15 5 4 13 1 16 -5 4 -6 18 -8 32 -4 14 3 22 2 19 -3 -3 -5 1 -9
9 -9 8 0 13 3 12 6 -1 3 3 6 8 6 6 0 9 -4 7 -8 -1 -5 3 -5 9 -2 8 5 8 10 0 18
-14 14 -43 18 -35 5 4 -6 2 -8 -4 -5 -5 4 -8 17 -4 29 5 19 6 20 12 4 8 -23
13 -24 33 -7 9 7 14 18 10 25 -4 6 0 5 9 -2 13 -10 17 -10 21 0 4 8 6 7 6 -4
1 -16 -10 -23 -31 -19 -11 1 -10 -11 2 -29 8 -13 10 -12 10 3 0 17 15 24 23
10 2 -5 2 -2 1 4 -2 7 6 17 16 23 12 6 20 7 20 1 0 -5 7 -11 15 -15 13 -4 13
-2 5 14 -7 13 -7 21 1 25 6 4 8 14 5 22 -4 9 4 6 18 -8 14 -13 21 -29 18 -38
-5 -13 -2 -12 12 2 15 15 21 16 35 5 14 -11 14 -11 4 3 -16 20 -5 33 15 16 13
-9 14 -9 8 1 -4 7 -1 12 8 12 9 0 16 5 16 10 0 14 -13 13 -28 -2 -9 -9 -12 -9
-12 0 0 13 1 13 39 17 13 1 27 9 32 16 5 8 9 10 9 5 0 -5 -7 -17 -15 -26 -14
-15 -14 -19 2 -31 16 -12 17 -12 6 2 -13 16 -8 29 9 29 5 0 6 -6 2 -12 -6 -9
-3 -9 9 0 9 8 22 10 28 6 8 -4 9 -3 5 4 -9 15 6 16 20 2 6 -6 10 -2 11 12 2
16 0 19 -6 10 -6 -10 -10 -9 -14 7 -4 17 -2 19 12 11 12 -6 22 -5 28 1 8 8 18
7 34 -2 21 -11 23 -11 11 3 -11 14 -9 15 23 8 26 -6 35 -5 32 3 -2 7 -13 10
-23 9 -10 -2 -16 -1 -12 3 3 3 14 8 23 9 9 1 21 9 26 17 7 11 9 11 9 1 0 -7 5
-10 10 -7 6 3 10 1 10 -5 0 -7 -6 -10 -12 -7 -8 3 -13 -5 -14 -22 -1 -14 1
-20 3 -13 3 6 9 10 14 6 5 -3 8 0 7 8 -2 7 5 12 14 12 14 -1 15 2 8 17 -7 12
-7 20 0 24 5 3 10 3 10 -2 0 -4 5 -1 11 7 9 13 10 13 6 0 -2 -8 -10 -14 -16
-12 -7 1 -10 -2 -6 -8 3 -6 11 -8 16 -4 5 3 17 0 26 -8 12 -9 15 -9 9 0 -4 7
-2 12 4 12 6 0 8 5 4 11 -4 8 -9 7 -15 -2 -6 -10 -8 -7 -6 9 1 14 5 18 11 12
14 -14 29 -12 20 2 -5 10 -4 10 6 1 9 -8 19 -9 31 -3 11 7 20 7 24 0 3 -5 1
-10 -4 -10 -6 0 -11 -5 -11 -10 0 -6 8 -5 20 2 10 7 15 15 10 18 -10 6 -8 35
3 46 3 4 5 -2 3 -13 -3 -11 4 -24 16 -32 17 -11 18 -10 8 9 -7 13 -7 20 0 20
5 0 10 -6 10 -12 0 -9 4 -8 11 2 9 12 10 11 6 -8 -3 -12 -1 -20 4 -16 5 3 9
14 9 24 0 10 5 22 12 26 6 4 8 3 5 -3 -4 -6 2 -13 13 -16 16 -4 18 -2 10 13
-7 13 -6 21 2 26 7 4 8 3 4 -4 -4 -7 -2 -12 3 -12 6 0 11 6 11 13 0 7 3 8 8 2
10 -14 62 -19 62 -6 0 6 -7 8 -16 4 -12 -4 -15 -2 -12 8 6 17 44 18 41 1 -2
-7 3 -11 10 -9 6 1 11 -4 9 -11 -1 -8 2 -11 8 -7 8 5 7 11 -1 21 -13 16 4 45
25 43 7 0 6 -2 -1 -6 -21 -8 -15 -33 7 -30 11 2 23 6 26 10 4 4 14 1 22 -6 13
-10 12 -7 -1 13 -16 25 -16 26 8 25 14 -1 28 -5 32 -10 5 -4 3 -5 -4 -1 -6 3
-15 1 -19 -6 -4 -7 -4 -10 1 -6 4 4 14 3 22 -4 8 -6 13 -7 12 -2 -4 21 2 28
11 14 8 -13 10 -13 10 2 0 12 6 16 22 13 16 -4 19 -2 10 7 -14 14 -16 28 -3
28 5 0 13 -10 17 -22 6 -19 7 -19 16 -4 5 9 14 13 20 10 7 -4 8 -2 4 5 -4 6
-11 9 -16 6 -4 -3 -13 2 -20 10 -9 10 -9 15 -1 15 6 0 11 -4 11 -9 0 -5 8 -8
18 -6 9 2 21 4 25 4 5 1 5 7 1 14 -4 6 -4 9 1 5 4 -4 14 0 22 10 13 15 13 15
3 -6 -9 -18 -8 -27 1 -38 16 -20 34 -12 35 14 1 12 -2 19 -7 16 -4 -2 -6 -11
-2 -19 3 -8 0 -15 -5 -15 -19 0 -22 17 -7 30 8 7 12 17 8 23 -3 5 -1 7 5 3 5
-3 12 -3 15 1 2 5 2 2 1 -4 -2 -7 4 -13 14 -13 15 0 15 -2 2 -10 -9 -6 -10
-10 -3 -10 6 0 15 5 18 10 4 6 10 8 15 5 5 -3 12 0 16 6 4 8 9 7 15 -2 7 -11
9 -10 9 5 0 13 5 17 20 13 23 -6 24 -3 10 23 -7 13 -7 21 2 26 7 4 8 3 4 -4
-4 -7 -3 -12 3 -12 5 0 13 -9 16 -21 l7 -21 15 21 c13 20 40 31 29 13 -3 -5 1
-9 9 -9 12 0 12 3 2 15 -10 13 -9 15 10 10 21 -6 21 -5 7 17 -15 22 -14 23 11
21 29 -4 37 4 25 24 -5 9 -5 19 2 27 6 8 8 16 4 20 -3 3 -6 1 -6 -6 0 -7 -5
-9 -12 -5 -6 4 -8 3 -5 -3 4 -6 0 -14 -9 -17 -8 -3 -12 -10 -9 -16 3 -5 1 -10
-5 -10 -7 0 -10 6 -7 14 3 7 1 18 -5 24 -6 6 -6 12 3 17 8 6 10 4 4 -5 -5 -9
-4 -11 3 -6 17 10 15 23 -4 30 -8 3 -12 2 -9 -4 9 -15 -9 -12 -31 5 -19 15
-19 15 1 8 24 -8 18 0 -12 16 -21 11 -22 10 -14 -12 7 -18 6 -24 -5 -24 -9 0
-13 6 -9 14 3 8 0 24 -6 35 -10 18 -9 20 5 15 9 -4 16 -3 16 2 0 13 -39 20
-47 9 -4 -7 -1 -8 7 -3 9 5 11 4 6 -3 -10 -17 -23 -15 -30 4 -3 8 -2 13 3 10
5 -3 12 1 15 10 3 8 2 12 -4 9 -6 -3 -10 -1 -10 4 0 6 6 11 13 11 7 0 5 5 -5
10 -10 6 -15 19 -13 30 2 11 0 20 -6 20 -5 0 -7 -11 -5 -25 3 -15 1 -23 -5
-20 -5 4 -6 11 -3 17 4 7 -2 8 -17 3 -21 -6 -22 -6 -8 6 10 8 20 25 24 38 7
22 5 23 -19 19 -15 -3 -29 -1 -33 5 -3 5 -2 7 3 4 6 -3 16 4 23 15 11 18 11
20 -4 14 -11 -4 -15 -2 -12 6 2 7 8 12 13 11 5 -1 10 11 10 25 1 15 -1 21 -3
15 -3 -7 -12 -13 -21 -13 -15 0 -15 -2 -2 -10 9 -6 10 -10 3 -10 -20 0 -25 18
-7 28 9 5 15 12 15 15 -3 21 0 27 11 21 7 -4 8 -3 4 4 -4 6 -13 9 -21 6 -8 -4
-13 -10 -10 -14 2 -4 -5 -16 -18 -26 -21 -18 -22 -18 -5 0 16 18 16 20 0 35
-10 9 -13 13 -8 9 14 -11 28 -10 21 1 -3 5 0 13 6 17 8 4 9 3 5 -4 -5 -8 -1
-10 9 -5 13 4 14 8 4 13 -7 5 -17 6 -24 4 -6 -3 -11 6 -11 20 0 14 4 22 8 20
11 -7 10 4 -3 27 -5 11 -15 16 -21 13 -7 -4 -8 -2 -4 5 6 9 11 9 21 1 14 -12
22 -4 21 20 -1 8 7 23 17 33 9 9 17 23 17 30 0 9 -2 9 -9 -1 -7 -11 -9 -10
-14 3 -5 11 -3 14 5 9 8 -5 9 -2 4 11 -5 14 -4 16 7 6 11 -9 17 -8 27 4 7 9 8
15 2 15 -6 0 -13 -6 -16 -12 -3 -7 -4 1 -2 19 2 18 -1 34 -7 37 -8 3 -8 5 1 5
7 1 10 6 7 11 -4 6 -1 9 6 8 16 -4 19 24 4 35 -6 5 -2 6 9 3 13 -5 17 -2 12 9
-3 8 -2 14 2 14 27 -4 41 2 35 18 -5 11 -3 14 6 8 10 -6 11 -3 1 15 -11 20
-10 21 10 10 18 -10 21 -9 15 1 -6 9 -3 11 9 6 11 -4 15 -3 11 4 -4 6 -13 8
-20 5 -8 -3 -19 3 -27 12 -12 16 -11 16 6 2 18 -14 19 -13 13 4 -7 18 -7 18
20 1 18 -12 24 -13 17 -4 -10 11 -6 19 17 40 30 28 41 28 32 1 -4 -13 -3 -14
5 -4 5 8 9 23 8 35 -1 12 5 28 14 35 13 10 12 11 -4 5 -14 -5 -17 -3 -11 7 5
9 4 11 -3 6 -7 -4 -17 3 -24 19 -7 17 -14 22 -19 14 -5 -8 -16 -3 -34 16 -16
15 -25 20 -22 11 4 -10 1 -16 -9 -16 -10 0 -13 8 -10 25 3 15 1 23 -5 20 -5
-4 -7 -11 -4 -16 4 -5 1 -9 -5 -9 -6 0 -9 -4 -6 -8 3 -5 -1 -9 -9 -9 -8 0 -12
4 -10 8 3 3 -9 12 -25 19 -17 7 -30 17 -30 22 0 5 -4 6 -10 3 -5 -3 -10 0 -10
8 0 8 -7 18 -16 21 -14 5 -15 4 -4 -9 7 -9 10 -18 8 -21 -3 -3 -12 9 -19 26
-8 16 -22 33 -31 36 -10 3 -18 10 -18 15 0 6 5 7 12 3 6 -4 8 -3 4 4 -3 5 0
13 6 15 10 4 10 6 1 6 -7 1 -17 11 -24 22 -6 13 -7 19 -1 15 6 -3 12 -3 15 1
2 5 2 2 1 -4 -2 -7 1 -13 7 -13 6 0 13 9 16 20 4 13 9 17 17 12 6 -5 19 -9 28
-9 14 0 15 3 6 14 -9 11 -5 13 23 9 19 -3 28 -3 21 0 -6 3 -9 10 -6 15 3 6 11
5 20 -2 9 -7 14 -8 13 -3 -3 20 2 34 12 34 6 0 8 -7 5 -16 -3 -9 -2 -12 5 -9
6 4 8 13 6 19 -3 7 -1 19 3 26 7 11 12 11 27 -1 16 -12 17 -12 7 1 -13 19 -12
41 1 38 5 -2 9 -9 7 -15 -2 -7 5 -13 15 -13 10 0 14 4 8 8 -14 10 -19 46 -6
37 6 -3 11 -1 11 4 0 6 5 11 12 11 9 0 9 -3 0 -12 -15 -15 -15 -28 -1 -28 5 0
7 5 4 10 -6 10 3 13 38 13 10 0 15 2 12 5 -2 3 0 11 6 19 9 9 8 17 0 27 -9 11
-9 16 1 22 7 4 10 4 6 -1 -14 -15 12 -35 32 -25 10 6 27 7 37 4 17 -5 17 -5 1
6 -12 7 -24 8 -36 1 -14 -7 -19 -6 -19 4 0 8 3 14 6 13 23 -2 73 5 59 9 -10 2
-18 9 -18 15 0 5 6 8 13 5 36 -15 51 -19 38 -9 -9 7 -10 12 -2 16 6 4 11 16
11 28 0 13 5 18 14 15 8 -3 20 1 26 9 7 8 9 14 4 14 -5 1 2 7 16 15 14 8 19
14 12 15 -7 0 -11 4 -7 10 3 5 13 7 23 4 16 -5 16 -5 0 5 -9 6 -15 19 -13 29
2 9 4 20 4 25 1 4 6 7 12 7 8 0 8 -5 -1 -15 -9 -11 -9 -15 -1 -15 7 0 9 -5 5
-12 -5 -9 -2 -9 9 1 19 15 23 26 6 15 -7 -4 -10 -1 -7 7 3 8 1 24 -3 37 -6 14
-5 21 0 17 5 -3 12 -1 16 5 3 5 2 10 -3 10 -5 0 -9 7 -9 15 0 9 4 12 9 7 12
-12 19 -54 7 -47 -5 4 -9 1 -9 -4 0 -6 5 -11 11 -11 5 0 7 -5 3 -12 -4 -7 -3
-8 5 -4 6 4 9 12 6 17 -4 5 0 9 7 9 8 0 9 3 3 8 -5 4 -12 16 -13 26 -3 17 -1
18 11 7 13 -10 15 -9 12 6 -1 10 5 27 14 37 9 11 10 16 4 12 -11 -6 -19 8 -11
17 2 1 -8 18 -21 37 -20 29 -21 32 -5 17 12 -9 23 -15 26 -12 3 3 4 -6 2 -21
-1 -14 0 -23 4 -20 14 15 9 42 -11 64 -13 14 -16 22 -8 20 7 -2 16 3 18 10 3
6 -1 10 -9 9 -7 -2 -10 -2 -5 0 4 3 4 10 1 15 -4 7 -2 8 4 4 7 -4 12 -1 12 9
0 9 -4 14 -9 10 -5 -3 -12 -1 -16 4 -3 6 3 8 13 6 27 -5 49 10 27 18 -9 4 -13
3 -10 -3 3 -6 -1 -7 -10 -3 -13 4 -14 8 -4 13 7 5 17 7 23 6 6 -2 8 -1 4 1
-13 7 -9 43 4 43 6 0 8 3 5 6 -4 4 -12 2 -19 -4 -9 -7 -17 -5 -28 6 -13 14
-12 15 3 9 21 -8 21 -4 2 34 -9 16 -19 28 -23 25 -4 -2 -8 7 -9 22 0 15 1 19
4 9 2 -9 9 -14 15 -11 6 4 8 3 5 -3 -3 -5 4 -22 17 -38 16 -19 25 -25 30 -16
5 7 2 10 -6 9 -8 -2 -12 6 -11 22 1 14 -1 19 -3 12 -8 -17 -24 -5 -17 13 3 8
0 15 -6 15 -6 0 -11 5 -11 11 0 5 5 7 12 3 7 -4 2 6 -10 23 -12 17 -18 33 -15
37 4 4 0 4 -10 0 -12 -4 -17 -1 -17 10 0 10 6 13 18 10 14 -5 14 -4 2 4 -8 6
-18 8 -22 6 -4 -3 -16 0 -25 6 -12 8 -13 10 -3 7 8 -2 24 -1 35 4 17 6 17 8 3
8 -12 1 -16 7 -12 19 5 16 5 16 -6 0 -12 -20 -30 -24 -30 -7 0 5 5 7 10 4 6
-3 10 -1 10 4 0 6 -6 11 -12 11 -9 0 -8 4 2 11 11 8 9 9 -10 3 -21 -6 -23 -5
-12 8 10 13 9 17 -5 23 -10 5 -24 7 -30 6 -7 -1 -13 3 -13 9 0 6 5 8 10 5 6
-3 10 -1 10 4 0 6 -5 11 -10 11 -6 0 -9 3 -9 8 3 19 -2 32 -12 32 -8 0 -8 -4
-1 -13 8 -9 8 -17 0 -27 -8 -12 -9 -12 -4 3 3 11 0 20 -9 24 -11 4 -13 9 -5
18 7 8 2 16 -18 26 -15 8 -33 22 -40 32 -7 9 -18 15 -23 12 -5 -4 -9 -1 -9 6
0 7 -3 9 -6 6 -9 -9 16 -38 27 -31 5 3 6 -3 2 -12 -4 -11 -8 -13 -11 -6 -2 7
-9 9 -14 6 -7 -4 -8 -2 -4 4 4 7 2 12 -3 12 -6 0 -11 -4 -11 -10 0 -5 -5 -10
-11 -10 -8 0 -8 4 -2 13 13 15 13 47 0 47 -5 0 -7 -6 -4 -14 7 -19 -18 -42
-28 -26 -5 8 -11 7 -23 -2 -9 -7 -13 -8 -9 -2 4 7 0 17 -8 24 -12 10 -15 10
-15 -1 0 -8 -7 -4 -16 9 -8 12 -12 27 -9 32 3 6 2 10 -3 10 -5 0 -12 -9 -15
-21 -6 -21 -27 -18 -27 4 0 7 4 6 11 -3 9 -13 10 -13 6 0 -2 8 -10 14 -16 12
-6 -1 -11 3 -11 8 0 7 -6 7 -19 0 -11 -5 -26 -10 -33 -10 -7 1 -1 8 15 16 15
8 27 17 27 19 0 7 -53 -17 -70 -32 -14 -11 -16 -9 -16 12 0 16 4 21 11 15 6
-5 17 -5 25 1 12 8 11 9 -5 7 -12 -2 -19 2 -17 10 1 8 -2 11 -9 6 -9 -5 -10
-2 -6 9 9 24 0 21 -14 -4 -7 -15 -8 -19 0 -15 7 4 9 1 5 -8 -3 -8 -13 -17 -21
-20 -13 -5 -14 -4 -3 9 11 14 7 19 -13 16 -4 0 -6 5 -5 11 2 7 -4 12 -12 10
-10 -1 -9 2 4 13 11 8 16 15 11 15 -6 0 3 11 18 25 27 26 36 55 16 55 -5 0 -7
5 -4 10 3 6 -2 10 -12 11 -17 0 -16 1 1 8 20 8 32 41 15 41 -5 0 -4 9 3 20 7
11 18 20 24 20 8 0 10 9 6 23 -5 20 -4 21 14 7 19 -14 19 -14 0 8 -20 23 -32
30 -21 12 3 -5 2 -10 -3 -10 -6 0 -13 7 -16 16 -3 8 -2 12 4 9 13 -8 13 1 0
25 -8 16 -8 18 5 14 8 -3 13 -10 10 -14 -3 -4 2 -13 9 -19 10 -9 16 -9 21 -1
4 6 1 9 -7 8 -8 -2 -13 6 -12 19 1 13 -3 20 -7 17 -5 -3 -9 0 -9 5 0 6 5 11
12 11 6 0 8 3 5 6 -4 4 -13 1 -22 -6 -9 -7 -18 -10 -22 -6 -3 3 -1 6 5 6 7 0
12 7 12 15 0 8 5 15 10 15 6 0 1 9 -10 20 -25 25 -27 48 -2 29 15 -13 16 -12
4 3 -8 9 -11 21 -9 25 3 5 -3 9 -13 9 -13 0 -16 -4 -10 -11 6 -8 5 -12 -4 -12
-20 0 -13 29 10 39 13 6 10 7 -10 3 -25 -5 -28 -4 -17 9 10 12 8 15 -8 21 -12
3 -21 15 -21 25 0 20 -29 55 -38 45 -3 -3 3 -12 14 -21 18 -14 18 -15 -3 -4
-13 6 -24 15 -24 20 -1 6 -2 14 -3 19 0 6 -7 16 -13 22 -7 7 -13 19 -13 26 0
7 -5 13 -11 13 -5 0 -7 5 -3 11 5 8 1 8 -14 0 -27 -14 -39 -14 -24 1 7 7 12
16 12 21 0 5 -7 1 -16 -7 -8 -9 -20 -14 -25 -10 -6 3 -18 0 -27 -8 -16 -12
-16 -11 -2 6 14 18 13 19 -3 13 -10 -4 -16 -3 -13 2 3 5 -1 11 -9 15 -9 3 -12
12 -9 23 5 15 4 16 -5 3 -9 -12 -11 -13 -11 -1 0 8 -3 11 -6 8 -4 -4 0 -17 9
-30 12 -19 13 -24 2 -24 -8 0 -13 5 -12 11 1 6 -6 10 -15 8 -10 -2 -18 3 -18
10 0 9 -3 9 -12 0 -7 -7 -16 -12 -22 -12 -5 0 -1 6 10 14 11 9 23 11 30 5 7
-5 11 -4 11 6 0 8 -4 12 -9 9 -4 -3 -8 0 -8 5 0 6 -5 11 -11 11 -5 0 -8 -4 -5
-9 3 -5 -1 -12 -10 -15 -8 -3 -12 -2 -9 4 3 6 -1 10 -10 10 -10 0 -13 -5 -9
-12 5 -7 3 -8 -5 -4 -9 6 -9 12 3 25 9 10 16 21 16 26 0 5 -6 1 -13 -10 -15
-19 -67 -30 -67 -14 0 6 4 8 9 5 5 -4 7 4 3 16 l-5 22 -8 -23 c-8 -21 -10 -21
-38 -6 -38 19 -52 19 -27 0 11 -8 15 -15 9 -15 -7 0 -15 5 -18 10 -4 6 -11 7
-17 4 -7 -5 -8 -2 -3 6 6 10 4 12 -9 7 -10 -4 -15 -3 -11 3 3 6 0 13 -9 16 -8
3 -12 13 -9 22 4 14 3 15 -5 2 -7 -8 -7 -19 -2 -25 6 -7 -2 -11 -25 -11 -25 0
-33 5 -32 16 0 9 6 17 13 17 7 0 10 -7 6 -15 -3 -10 -1 -13 6 -8 17 10 15 39
-2 33 -7 -3 -19 0 -26 6 -10 9 -11 9 -5 -2 6 -11 4 -13 -8 -8 -9 3 -18 1 -21
-6 -2 -7 -5 -4 -5 6 -1 9 4 17 9 17 6 0 10 4 10 9 0 4 -10 8 -22 7 -14 -1 -22
4 -20 12 1 8 -2 11 -7 8 -5 -4 -12 -2 -16 4 -4 6 -12 7 -18 3 -7 -4 -18 -8
-25 -9 -10 -2 -11 1 -1 12 6 8 17 14 25 14 7 0 16 4 19 10 3 5 0 7 -9 4 -8 -3
-25 0 -38 6 -22 11 -22 10 -4 -4 11 -9 14 -16 8 -16 -7 0 -15 0 -19 0 -11 0
-11 23 0 38 6 7 7 15 3 19 -3 3 -6 1 -6 -5 0 -7 -7 -12 -16 -12 -8 0 -13 -4
-10 -8 3 -5 -1 -9 -7 -9 -7 0 -14 9 -14 19 -1 10 3 18 8 18 6 0 7 -4 4 -10 -3
-6 1 -7 10 -3 12 4 13 8 5 13 -9 6 -9 9 1 13 8 2 2 4 -13 3 -14 0 -24 -4 -22
-7 2 -4 -5 -9 -16 -12 -13 -3 -20 0 -20 9 0 8 -3 14 -7 14 -14 -1 -43 -27 -37
-33 10 -9 -40 5 -54 16 -7 5 -15 7 -19 3 -3 -3 -1 -6 6 -6 7 0 9 -5 5 -12 -5
-7 -3 -8 6 -3 9 6 11 4 5 -5 -5 -9 -2 -10 13 -6 11 4 23 3 25 -2 7 -9 -33 -10
-48 0 -6 4 -17 3 -25 -3 -8 -5 -19 -9 -25 -9 -5 0 -3 5 5 10 13 8 12 10 -3 10
-10 0 -28 -5 -40 -11 -21 -10 -21 -10 -3 5 11 9 17 19 13 22 -4 4 -14 1 -24
-7 -15 -12 -16 -12 -10 3 3 10 1 20 -5 24 -7 4 -8 3 -4 -4 4 -7 2 -12 -4 -12
-8 0 -8 -6 0 -22 10 -21 9 -21 -9 2 -11 14 -21 28 -21 31 0 12 -38 17 -51 7
-11 -8 -11 -9 2 -5 9 3 22 1 30 -4 9 -5 4 -7 -16 -5 -17 2 -32 4 -34 5 -2 0 4
10 13 20 13 14 14 21 5 27 -8 4 -10 3 -5 -4 4 -7 -3 -17 -18 -23 -20 -10 -29
-9 -42 2 -13 11 -18 11 -21 2 -3 -7 -8 -13 -12 -13 -11 0 -10 33 2 48 8 10 7
12 -4 10 -8 -2 -13 3 -11 10 1 6 -2 12 -7 12 -6 0 -8 -16 -7 -35 3 -27 1 -33
-8 -26 -9 7 -17 7 -26 -2 -8 -7 -11 -8 -7 -1 4 7 0 17 -8 24 -12 10 -15 10
-15 -1 0 -8 -7 -4 -16 9 -8 12 -12 27 -9 32 3 6 2 10 -3 10 -5 0 -12 -9 -15
-21 -6 -21 -27 -18 -27 4 0 7 4 6 11 -3 7 -10 9 -11 7 -2 -2 8 -7 13 -12 12
-5 -1 -12 3 -16 9 -4 8 -16 4 -36 -11 -25 -19 -27 -20 -14 -3 8 11 19 23 23
26 5 3 1 9 -8 12 -9 4 -13 3 -10 -3 3 -6 -3 -10 -14 -10 -10 0 -22 -6 -25 -12
-3 -7 -3 -3 -1 8 7 28 -16 37 -43 18 -20 -13 -20 -13 -17 18 2 18 1 27 -2 20
-2 -6 -10 -9 -15 -6 -7 4 -8 2 -4 -4 9 -15 1 -15 -24 -2 -12 7 -17 17 -14 28
4 11 3 13 -3 5 -12 -17 -40 -11 -59 13 -14 18 -15 18 -4 -3 9 -20 8 -23 -10
-23 -11 0 -20 5 -20 11 0 5 5 7 12 3 7 -4 8 -3 4 4 -4 6 -13 9 -21 5 -10 -3
-15 1 -15 13 0 16 -2 16 -9 5 -7 -10 -4 -19 7 -27 14 -10 15 -15 4 -26 -11
-11 -12 -10 -6 6 5 13 4 17 -4 12 -7 -4 -12 -2 -12 6 0 9 -3 9 -10 -2 -13 -20
-13 -4 0 21 6 11 7 19 1 19 -9 0 -25 -29 -23 -41 0 -3 -6 -6 -13 -6 -10 0 -12
4 -5 12 5 7 6 16 2 20 -4 5 -2 5 4 2 6 -3 11 1 11 10 0 13 -3 12 -17 -4 -14
-17 -17 -18 -29 -5 -10 10 -15 11 -21 2 -5 -8 -9 -8 -13 3 -6 16 -23 17 -46 3
-9 -6 -12 -5 -7 2 3 6 2 13 -4 17 -5 3 -10 1 -10 -5 0 -6 -5 -8 -11 -4 -8 4
-7 9 2 15 7 4 17 5 21 3 4 -3 8 0 8 6 0 6 6 8 13 4 6 -4 9 -3 4 1 -10 11 -48
14 -41 3 3 -4 1 -8 -5 -8 -5 0 -11 3 -14 8 -2 4 -2 1 -1 -5z m84 -53 c0 -5 -2
-10 -4 -10 -3 0 -8 5 -11 10 -3 6 -1 10 4 10 6 0 11 -4 11 -10z m-309 -43 c-6
-8 -8 -17 -4 -20 3 -4 2 -7 -4 -7 -6 0 -14 7 -17 16 -3 8 -2 12 3 9 5 -3 12
-1 16 5 3 5 9 10 12 10 3 0 0 -6 -6 -13z m566 -10 c12 -12 12 -14 -1 -14 -8 0
-13 4 -10 9 3 4 1 8 -5 8 -5 0 -11 -5 -13 -10 -2 -6 -9 -1 -15 9 -11 18 -10
19 9 16 12 -3 28 -11 35 -18z m-634 -30 c3 -8 -1 -14 -8 -14 -7 0 -11 6 -8 14
3 7 6 13 8 13 2 0 5 -6 8 -13z m677 4 c0 -6 -4 -12 -8 -15 -5 -3 -9 1 -9 9 0
8 4 15 9 15 4 0 8 -4 8 -9z m60 -6 c0 -8 -4 -15 -10 -15 -5 0 -7 7 -4 15 4 8
8 15 10 15 2 0 4 -7 4 -15z m-820 -55 c0 -5 -2 -10 -4 -10 -3 0 -8 5 -11 10
-3 6 -1 10 4 10 6 0 11 -4 11 -10z m904 2 c3 -5 -1 -9 -9 -9 -8 0 -12 4 -9 9
3 4 7 8 9 8 2 0 6 -4 9 -8z m74 -27 c-3 -3 -9 2 -12 12 -6 14 -5 15 5 6 7 -7
10 -15 7 -18z m-998 5 c0 -5 -2 -10 -4 -10 -3 0 -8 5 -11 10 -3 6 -1 10 4 10
6 0 11 -4 11 -10z m1510 -50 c0 -5 -5 -10 -11 -10 -5 0 -7 5 -4 10 3 6 8 10
11 10 2 0 4 -4 4 -10z m204 -113 c4 4 4 -1 0 -11 -5 -14 -9 -15 -15 -4 -4 7
-14 13 -21 13 -13 0 -18 7 -18 27 0 6 10 2 23 -10 13 -12 27 -19 31 -15z
m-2244 -91 c0 -2 -7 -7 -16 -10 -8 -3 -12 -2 -9 4 6 10 25 14 25 6z m-78 -20
c7 4 8 2 4 -4 -4 -6 -14 -8 -23 -5 -12 5 -14 3 -8 -7 5 -9 4 -11 -4 -6 -9 6
-9 11 1 23 8 10 14 11 16 4 2 -6 9 -8 14 -5z m2562 -12 c3 -8 2 -12 -4 -9 -6
3 -10 10 -10 16 0 14 7 11 14 -7z m46 6 c0 -5 -5 -10 -11 -10 -5 0 -7 5 -4 10
3 6 8 10 11 10 2 0 4 -4 4 -10z m-2657 -14 c4 -10 1 -13 -8 -9 -8 3 -12 9 -9
14 7 12 11 11 17 -5z m-33 -6 c0 -5 -7 -10 -16 -10 -8 0 -13 -4 -10 -8 2 -4 0
-14 -6 -22 -8 -13 -9 -12 -5 1 3 9 0 22 -6 29 -7 7 -7 10 -2 7 6 -3 17 -2 25
4 19 11 20 11 20 -1z m-85 -56 c-9 -9 -19 -13 -23 -10 -3 4 0 11 8 16 24 15
33 11 15 -6z m3038 -8 c4 -10 0 -12 -15 -8 -15 4 -17 7 -6 13 17 11 15 11 21
-5z m23 -38 c3 -4 -1 -5 -10 -4 -8 1 -18 5 -22 8 -3 4 1 5 10 4 8 -1 18 -5 22
-8z m-3336 -81 c0 -2 -8 -3 -18 -4 -10 -1 -19 5 -19 12 0 10 5 11 19 4 10 -5
18 -11 18 -12z m-189 -90 c-10 -9 -11 -8 -5 6 3 10 9 15 12 12 3 -3 0 -11 -7
-18z m3619 11 c0 -4 -4 -8 -9 -8 -6 0 -12 4 -15 8 -3 5 1 9 9 9 8 0 15 -4 15
-9z m-3649 -7 c7 11 9 11 9 1 0 -7 -7 -15 -15 -18 -8 -4 -12 -10 -9 -15 3 -5
0 -9 -5 -9 -6 0 -9 10 -7 23 6 32 7 33 13 18 5 -11 7 -11 14 0z m3679 -54 c-8
-9 -9 -7 -4 7 5 13 4 17 -4 12 -8 -5 -10 -2 -5 10 6 15 7 15 16 -1 6 -11 5
-21 -3 -28z m23 -12 c-3 -9 -8 -14 -10 -11 -3 3 -2 9 2 15 9 16 15 13 8 -4z
m-3773 -21 c0 -3 -6 -12 -14 -19 -12 -12 -16 -12 -26 1 -11 12 -10 13 4 8 9
-3 16 -1 16 5 0 6 5 11 10 11 6 0 10 -3 10 -6z m40 -48 c0 -2 -8 -10 -17 -17
-16 -13 -17 -12 -4 4 13 16 21 21 21 13z m80 -132 c0 -8 -19 -13 -24 -6 -3 5
1 9 9 9 8 0 15 -2 15 -3z m3650 -84 c0 -12 -40 -34 -48 -26 -3 3 0 6 7 6 7 0
9 4 6 10 -4 6 1 7 11 3 12 -4 15 -3 10 5 -4 7 -2 12 3 12 6 0 11 -4 11 -10z
m-52 -55 c-3 -3 -9 2 -12 12 -6 14 -5 15 5 6 7 -7 10 -15 7 -18z m-3538 -61
c0 -8 -19 -13 -24 -6 -3 5 1 9 9 9 8 0 15 -2 15 -3z m-27 -39 c-3 -9 -8 -14
-10 -11 -3 3 -2 9 2 15 9 16 15 13 8 -4z m3785 -50 c-3 -3 -9 2 -12 12 -6 14
-5 15 5 6 7 -7 10 -15 7 -18z m-3794 -21 c3 -8 2 -12 -4 -9 -6 3 -10 10 -10
16 0 14 7 11 14 -7z m3976 -19 c0 -8 -4 -15 -10 -15 -5 0 -7 7 -4 15 4 8 8 15
10 15 2 0 4 -7 4 -15z m32 -10 c0 -5 -5 -10 -11 -11 -8 -2 -7 -1 0 3 8 4 7 8
-2 15 -11 8 -11 9 -1 6 8 -2 14 -8 14 -13z m-4079 -95 c3 -11 1 -18 -4 -14 -5
3 -9 12 -9 20 0 20 7 17 13 -6z m47 16 c0 -3 -4 -8 -10 -11 -5 -3 -10 -1 -10
4 0 6 5 11 10 11 6 0 10 -2 10 -4z m4116 -18 c4 -7 3 -8 -4 -4 -7 4 -12 2 -12
-3 0 -6 -5 -11 -11 -11 -8 0 -8 5 1 15 15 18 17 18 26 3z m11 -44 c-3 -3 -12
-4 -19 -1 -8 3 -5 6 6 6 11 1 17 -2 13 -5z m-4267 -40 c0 -8 -19 -13 -24 -6
-3 5 1 9 9 9 8 0 15 -2 15 -3z m-120 -38 c0 -3 -4 -8 -10 -11 -5 -3 -10 -1
-10 4 0 6 5 11 10 11 6 0 10 -2 10 -4z m4463 -22 c8 -8 -3 -34 -15 -34 -6 0
-6 6 1 14 9 11 9 15 -1 19 -7 3 -8 6 -2 6 6 1 13 -2 17 -5z m-4646 -61 c0 -7
-4 -13 -8 -13 -4 0 -9 6 -12 13 -3 8 0 14 7 14 7 0 13 -6 13 -14z m4691 -127
c-2 -1 -12 -8 -23 -16 -18 -14 -19 -13 -8 1 7 9 10 19 6 23 -4 4 1 4 10 0 10
-3 17 -7 15 -8z m-4609 -203 c-3 -19 2 -34 9 -29 5 3 9 -1 9 -8 0 -11 -4 -12
-18 -3 -14 8 -17 22 -10 45 2 6 11 1 10 -5z m4592 -37 c-6 -7 -8 -16 -4 -20 4
-4 0 -4 -10 0 -20 7 -23 30 -4 37 19 7 29 -3 18 -17z m-93 -163 c-6 -7 -7 -13
-2 -13 5 0 1 -5 -9 -11 -9 -6 -15 -14 -12 -19 3 -5 1 -11 -4 -14 -17 -11 -22
12 -5 28 8 9 12 16 7 16 -4 0 0 5 9 11 10 5 15 17 12 27 -5 14 -4 14 4 2 8
-10 8 -18 0 -27z m-72 -85 c-3 -13 -5 -25 -5 -27 -1 -3 -6 0 -12 6 -8 8 -8 15
2 27 18 20 20 20 15 -6z m-151 -97 c-3 -5 -1 -12 5 -16 5 -3 10 -1 10 4 0 6 5
11 11 11 8 0 8 -5 -1 -15 -10 -12 -16 -13 -26 -4 -12 10 -11 29 2 29 3 0 3 -4
-1 -9z m-4371 -23 c-3 -4 -15 -6 -26 -4 -25 3 -70 -32 -61 -47 3 -6 1 -7 -6
-3 -9 6 -9 11 0 22 6 8 8 14 4 14 -4 0 -3 6 3 13 11 13 94 18 86 5z m-19 -28
c3 -6 -1 -7 -9 -4 -18 7 -21 14 -7 14 6 0 13 -4 16 -10z m4268 -33 c4 3 7 1 7
-5 0 -6 -9 -14 -20 -17 -12 -4 -17 -11 -14 -18 4 -7 3 -9 -1 -4 -5 4 -17 0
-27 -10 -10 -9 -18 -14 -19 -12 0 2 -2 12 -4 22 -3 15 -1 16 13 5 13 -11 15
-11 9 4 -4 13 -2 15 10 11 11 -4 14 -2 9 5 -5 8 -2 10 10 5 14 -5 15 -3 5 18
-11 21 -10 22 2 7 8 -10 17 -15 20 -11z m-4389 -5 c3 -5 -1 -9 -9 -9 -8 0 -15
4 -15 9 0 4 4 8 9 8 6 0 12 -4 15 -8z m-52 -34 c-5 -21 -6 -21 -12 -2 -8 21
-3 37 10 29 4 -3 6 -15 2 -27z m4344 -23 c0 -14 -4 -25 -8 -25 -6 0 -5 25 1
48 3 10 7 -2 7 -23z m-36 1 c0 -3 -4 -8 -10 -11 -5 -3 -10 -1 -10 4 0 6 5 11
10 11 6 0 10 -2 10 -4z m-43 -95 c-9 -11 -7 -17 11 -29 23 -15 29 -32 11 -32
-5 0 -7 5 -4 10 3 6 1 10 -4 10 -6 0 -11 -6 -11 -12 0 -7 -5 -5 -11 5 -6 9
-16 14 -22 11 -8 -5 -8 -3 1 7 18 20 15 33 -5 18 -17 -13 -17 -13 0 7 9 11 17
26 17 33 0 9 3 9 14 -1 11 -10 11 -16 3 -27z m-4437 -131 c0 -5 -6 -10 -12
-10 -9 0 -8 -3 2 -10 12 -7 10 -9 -6 -8 -18 2 -20 5 -10 20 12 20 26 24 26 8z
m4699 -37 c2 -1 -5 -1 -16 0 -11 0 -20 7 -20 14 0 10 4 10 16 1 9 -7 18 -13
20 -15z m48 -58 c2 -15 1 -16 -6 -6 -7 11 -10 10 -15 -6 -4 -11 -18 -25 -32
-31 -31 -15 -34 -15 -34 -1 0 5 4 8 9 5 5 -3 19 2 31 12 17 14 20 22 12 42 -5
14 -7 31 -4 38 5 17 35 -23 39 -53z m-4757 51 c0 -2 -7 -7 -16 -10 -8 -3 -12
-2 -9 4 6 10 25 14 25 6z m4710 -56 c0 -5 -5 -10 -11 -10 -5 0 -7 5 -4 10 3 6
8 10 11 10 2 0 4 -4 4 -10z m-4740 -79 c0 -6 -5 -13 -10 -16 -6 -4 -8 -10 -5
-15 3 -5 1 -11 -4 -14 -8 -5 -8 15 -1 34 1 3 2 8 1 13 0 4 4 7 9 7 6 0 10 -4
10 -9z m13 -26 c-3 -9 -8 -14 -10 -11 -3 3 -2 9 2 15 9 16 15 13 8 -4z m4647
-15 c0 -5 -5 -10 -11 -10 -5 0 -7 5 -4 10 3 6 8 10 11 10 2 0 4 -4 4 -10z
m-89 -248 c-7 -2 -18 1 -23 6 -8 8 -4 9 13 5 13 -4 18 -8 10 -11z m-4416 -142
c-10 -11 -21 -18 -23 -15 -3 3 3 12 14 20 27 20 30 18 9 -5z m102 -55 c0 -8
-4 -12 -9 -9 -5 3 -6 10 -3 15 9 13 12 11 12 -6z m-17 -39 c0 -6 -5 -4 -10 4
-5 8 -10 11 -10 7 0 -5 -5 -5 -10 -2 -6 4 -8 11 -4 16 7 12 34 -8 34 -25z
m4320 -36 c0 -5 -2 -10 -4 -10 -3 0 -8 5 -11 10 -3 6 -1 10 4 10 6 0 11 -4 11
-10z m-4140 -40 c0 -5 -4 -10 -10 -10 -5 0 -10 5 -10 10 0 6 5 10 10 10 6 0
10 -4 10 -10z m4184 -15 c-7 -16 -24 -21 -24 -6 0 8 7 13 27 20 1 1 0 -6 -3
-14z m-4134 -1 c0 -8 -19 -13 -24 -6 -3 5 1 9 9 9 8 0 15 -2 15 -3z m-56 -12
c3 -5 -1 -9 -9 -9 -8 0 -12 4 -9 9 3 4 7 8 9 8 2 0 6 -4 9 -8z m4215 -57 c7 3
8 0 5 -9 -8 -22 -17 -20 -33 7 -13 20 -13 21 2 9 9 -8 21 -11 26 -7z m32 -98
c-10 -9 -11 -8 -5 6 3 10 9 15 12 12 3 -3 0 -11 -7 -18z m-3921 -43 c0 -3 -7
-1 -15 6 -8 7 -15 17 -15 22 0 5 7 3 15 -6 8 -8 15 -18 15 -22z m4064 -40 c3
-8 2 -12 -4 -9 -6 3 -10 10 -10 16 0 14 7 11 14 -7z m-48 -36 c4 -7 4 -10 0
-6 -5 4 -19 -5 -32 -20 -13 -15 -24 -21 -24 -14 0 6 5 12 11 12 5 0 7 5 3 12
-4 6 -3 8 3 5 6 -4 13 0 17 8 7 18 13 19 22 3z m-117 -39 c5 7 11 9 14 4 4 -6
-6 -16 -21 -23 -37 -18 -51 -20 -59 -8 -3 7 -1 8 5 4 6 -4 17 2 24 13 9 15 14
17 20 8 6 -9 10 -9 17 2z m-324 -87 c-3 -3 -11 0 -18 7 -9 10 -8 11 6 5 10 -3
15 -9 12 -12z m79 1 c4 -10 4 -14 0 -11 -4 4 -15 3 -25 -3 -13 -6 -19 -6 -19
1 0 5 7 10 15 10 8 0 15 5 15 10 0 15 7 12 14 -7z m-109 -32 c3 -5 1 -12 -5
-16 -5 -3 -10 1 -10 9 0 18 6 21 15 7z m-251 -47 c3 -8 2 -12 -4 -9 -6 3 -10
10 -10 16 0 14 7 11 14 -7z m-2787 -19 c0 -8 -4 -12 -9 -9 -5 3 -6 10 -3 15 9
13 12 11 12 -6z m2708 -15 c-3 -5 -12 -10 -18 -10 -7 0 -6 4 3 10 19 12 23 12
15 0z m-215 -56 c0 -8 -19 -13 -24 -6 -3 5 1 9 9 9 8 0 15 -2 15 -3z m-121
-48 c10 -12 8 -17 -7 -25 -14 -7 -19 -7 -19 4 0 8 7 11 16 7 14 -5 14 -3 2 11
-7 9 -11 17 -8 17 2 0 10 -6 16 -14z m-135 -50 c-3 -8 -12 -17 -20 -20 -8 -3
-13 -2 -9 3 3 5 2 11 -2 14 -5 2 -3 2 4 1 7 -2 15 1 18 6 9 15 15 12 9 -4z
m-1902 -20 c7 4 8 2 4 -5 -9 -13 -26 -5 -25 12 0 9 2 8 6 -1 2 -6 10 -9 15 -6z
m87 -58 c10 -17 10 -20 0 -11 -9 9 -16 9 -25 2 -11 -9 -13 2 -5 29 3 9 18 -2
30 -20z m1401 -48 c5 9 9 8 13 -3 4 -10 0 -14 -11 -13 -9 2 -17 8 -18 15 -2 8
-1 8 3 0 4 -8 7 -8 13 1z m-57 -21 c-8 -8 -13 -7 -18 2 -5 8 -4 10 3 5 7 -4
12 -2 12 5 0 7 3 9 7 6 4 -4 2 -12 -4 -18z m-175 -34 c-3 -3 -9 2 -12 12 -6
14 -5 15 5 6 7 -7 10 -15 7 -18z m-43 -22 c-2 -10 -4 -19 -4 -21 -1 -2 -6 0
-11 3 -8 5 -7 11 1 21 15 18 18 18 14 -3z m-43 -17 c7 4 8 2 4 -5 -9 -13 -26
-5 -25 12 0 9 2 8 6 -1 2 -6 10 -9 15 -6z m-76 -28 c3 -4 -5 -12 -18 -19 -12
-6 -20 -8 -16 -4 4 5 3 13 -2 20 -7 8 -4 11 10 10 11 -1 22 -4 26 -7z m-339
-63 c0 -8 -4 -12 -9 -9 -5 3 -6 10 -3 15 9 13 12 11 12 -6z m-188 -39 c9 -11
9 -16 0 -22 -7 -4 -9 -3 -5 4 3 5 -6 20 -21 32 -18 13 -20 17 -7 11 11 -5 26
-17 33 -25z"/>
<path d="M5227 2570 c3 -11 9 -17 15 -14 5 3 4 12 -3 20 -16 19 -18 18 -12 -6z"/>
<path d="M3015 5400 c-3 -6 1 -7 9 -4 18 7 21 14 7 14 -6 0 -13 -4 -16 -10z"/>
<path d="M3046 5395 c-4 -11 -4 -16 0 -13 4 4 15 3 25 -3 13 -6 19 -6 19 1 0
5 -6 10 -14 10 -8 0 -16 5 -18 12 -3 7 -7 4 -12 -7z"/>
<path d="M2870 5389 c0 -5 5 -7 10 -4 6 3 10 8 10 11 0 2 -4 4 -10 4 -5 0 -10
-5 -10 -11z"/>
<path d="M2780 5362 c0 -7 -9 -12 -20 -12 -11 0 -20 -4 -20 -9 0 -12 27 -8 42
7 6 6 9 15 5 19 -4 3 -7 1 -7 -5z"/>
<path d="M2655 5321 c-3 -5 -2 -12 3 -15 5 -3 9 1 9 9 0 17 -3 19 -12 6z"/>
<path d="M3415 5300 c3 -5 8 -10 11 -10 2 0 4 5 4 10 0 6 -5 10 -11 10 -5 0
-7 -4 -4 -10z"/>
<path d="M2570 5280 c0 -5 5 -10 11 -10 5 0 7 5 4 10 -3 6 -8 10 -11 10 -2 0
-4 -4 -4 -10z"/>
<path d="M3555 5241 c-3 -5 -1 -12 5 -16 5 -3 10 1 10 9 0 18 -6 21 -15 7z"/>
<path d="M3584 5234 c3 -17 13 -27 31 -30 8 -1 11 4 8 11 -2 8 -12 11 -21 7
-14 -5 -15 -3 -5 9 10 13 10 16 -1 16 -8 0 -13 -6 -12 -13z"/>
<path d="M2427 5203 c-9 -15 17 -23 34 -11 11 8 11 9 -3 5 -9 -3 -18 -1 -21 6
-2 8 -5 8 -10 0z"/>
<path d="M3666 5202 c-2 -4 3 -8 12 -9 9 -1 24 -3 32 -5 8 -2 16 1 18 7 3 12
-55 18 -62 7z"/>
<path d="M3909 5150 c13 -11 27 -20 32 -20 17 0 9 9 -23 24 l-33 16 24 -20z"/>
<path d="M3986 5158 c3 -4 9 -8 15 -8 5 0 9 4 9 8 0 5 -7 9 -15 9 -8 0 -12 -4
-9 -9z"/>
<path d="M2175 5080 c-3 -5 -1 -10 4 -10 6 0 11 5 11 10 0 6 -2 10 -4 10 -3 0
-8 -4 -11 -10z"/>
<path d="M2203 5075 c0 -8 4 -12 9 -9 4 3 8 9 8 15 0 5 -4 9 -8 9 -5 0 -9 -7
-9 -15z"/>
<path d="M2091 5031 c-8 -5 -9 -11 -3 -15 5 -3 12 1 16 9 6 17 6 18 -13 6z"/>
<path d="M4393 5015 c0 -8 4 -12 9 -9 5 3 6 10 3 15 -9 13 -12 11 -12 -6z"/>
<path d="M4437 4999 c4 -13 8 -18 11 -10 2 7 -1 18 -6 23 -8 8 -9 4 -5 -13z"/>
<path d="M1967 4999 c7 -7 15 -10 18 -7 3 3 -2 9 -12 12 -14 6 -15 5 -6 -5z"/>
<path d="M4404 4989 c-4 -7 -3 -9 4 -5 5 3 13 0 15 -6 4 -9 6 -10 6 -1 1 17
-16 25 -25 12z"/>
<path d="M4460 4973 c0 -1 8 -7 18 -12 13 -7 19 -6 19 2 0 7 -9 13 -19 13 -10
0 -18 -1 -18 -3z"/>
<path d="M4535 4971 c-6 -11 13 -26 22 -17 4 3 1 6 -6 6 -7 0 -9 5 -6 10 3 6
4 10 1 10 -3 0 -7 -4 -11 -9z"/>
<path d="M4700 4906 c0 -3 13 -12 29 -21 23 -12 31 -12 37 -2 4 6 4 9 -1 5 -4
-4 -20 -1 -36 8 -16 8 -29 12 -29 10z"/>
<path d="M1715 4860 c3 -5 8 -10 11 -10 2 0 4 5 4 10 0 6 -5 10 -11 10 -5 0
-7 -4 -4 -10z"/>
<path d="M4853 4812 c9 -10 14 -22 10 -27 -5 -4 -3 -5 4 -1 15 8 7 32 -15 41
-14 5 -14 4 1 -13z"/>
<path d="M1625 4811 c-3 -5 -2 -12 3 -15 5 -3 9 1 9 9 0 17 -3 19 -12 6z"/>
<path d="M1556 4793 c-6 -14 -5 -15 5 -6 7 7 10 15 7 18 -3 3 -9 -2 -12 -12z"/>
<path d="M4896 4793 c-6 -14 -5 -15 5 -6 7 7 10 15 7 18 -3 3 -9 -2 -12 -12z"/>
<path d="M1577 4783 c-4 -3 -7 -11 -7 -17 0 -6 5 -5 12 2 6 6 9 14 7 17 -3 3
-9 2 -12 -2z"/>
<path d="M1510 4764 c0 -1 6 -7 14 -13 10 -8 16 -8 24 2 9 10 6 13 -13 13 -14
0 -25 -1 -25 -2z"/>
<path d="M1420 4720 c0 -17 17 -47 23 -40 2 3 -2 16 -10 30 -7 14 -13 18 -13
10z"/>
<path d="M1345 4671 c-15 -17 -15 -19 -1 -17 22 3 40 22 28 30 -5 3 -17 -3
-27 -13z"/>
<path d="M1236 4445 c-3 -8 -1 -15 3 -15 5 0 11 7 15 15 3 8 1 15 -3 15 -5 0
-11 -7 -15 -15z"/>
<path d="M1209 4403 c-13 -16 -12 -17 4 -4 9 7 17 15 17 17 0 8 -8 3 -21 -13z"/>
<path d="M5033 4405 c0 -8 4 -12 9 -9 5 3 6 10 3 15 -9 13 -12 11 -12 -6z"/>
<path d="M4999 4400 c-6 -19 -5 -49 2 -45 4 3 9 0 11 -7 3 -8 6 -6 10 4 4 9 0
24 -7 35 -8 10 -15 16 -16 13z m15 -26 c3 -8 2 -12 -4 -9 -6 3 -10 10 -10 16
0 14 7 11 14 -7z"/>
<path d="M1255 4340 c-4 -6 1 -7 12 -3 16 6 17 5 3 -13 -14 -18 -14 -18 4 -4
18 14 19 13 13 -2 -3 -10 -3 -20 2 -22 11 -7 10 27 -2 42 -11 15 -24 16 -32 2z"/>
<path d="M4986 4332 c-3 -6 -1 -14 5 -17 15 -10 25 3 12 16 -7 7 -13 7 -17 1z"/>
<path d="M4955 4229 c-5 -8 -4 -10 3 -5 7 4 12 3 12 -3 0 -5 -6 -11 -12 -14
-10 -3 -9 -8 2 -18 8 -8 11 -10 7 -5 -4 5 -2 15 5 23 8 10 8 17 1 24 -8 8 -13
7 -18 -2z"/>
<path d="M5155 4121 c-3 -5 -1 -12 5 -16 5 -3 10 1 10 9 0 18 -6 21 -15 7z"/>
<path d="M5184 4116 c3 -20 17 -36 26 -31 5 3 11 1 15 -5 4 -6 11 -8 16 -4 5
3 7 10 3 15 -3 5 -10 7 -15 4 -5 -4 -9 -2 -9 4 0 5 8 15 18 20 9 6 12 11 6 11
-6 0 -17 -7 -24 -15 -7 -8 -17 -15 -22 -15 -7 0 -6 5 1 13 8 10 7 14 -3 14 -8
0 -13 -5 -12 -11z"/>
<path d="M5367 4059 c7 -7 15 -10 18 -7 3 3 -2 9 -12 12 -14 6 -15 5 -6 -5z"/>
<path d="M1310 4031 c0 -6 4 -13 10 -16 6 -3 7 1 4 9 -7 18 -14 21 -14 7z"/>
<path d="M5447 3959 c7 -7 15 -10 18 -7 3 3 -2 9 -12 12 -14 6 -15 5 -6 -5z"/>
<path d="M1233 3945 c0 -8 4 -15 9 -15 4 0 8 4 8 9 0 6 -4 12 -8 15 -5 3 -9
-1 -9 -9z"/>
<path d="M1187 3923 c-3 -5 -2 -16 2 -25 5 -15 8 -15 31 3 14 12 20 18 13 15
-6 -3 -14 0 -16 6 -3 8 -6 6 -6 -5 -1 -10 -6 -15 -11 -12 -6 4 -8 11 -5 16 4
5 4 9 1 9 -3 0 -7 -3 -9 -7z"/>
<path d="M1095 3889 c-4 -6 -5 -12 -2 -15 2 -3 7 2 10 11 7 17 1 20 -8 4z"/>
<path d="M1140 3895 c0 -7 30 -13 34 -7 3 4 -4 9 -15 9 -10 1 -19 0 -19 -2z"/>
<path d="M986 3815 c-3 -8 -11 -14 -17 -13 -6 2 -14 -3 -16 -9 -3 -7 0 -13 5
-13 11 0 52 35 52 44 0 12 -18 6 -24 -9z"/>
<path d="M746 3638 c3 -5 10 -6 15 -3 13 9 11 12 -6 12 -8 0 -12 -4 -9 -9z"/>
<path d="M842 3566 c7 -8 15 -12 17 -11 5 6 -10 25 -20 25 -5 0 -4 -6 3 -14z"/>
<path d="M5590 3520 c-8 -15 -8 -18 3 -14 8 3 14 11 14 19 0 20 -4 19 -17 -5z"/>
<path d="M5587 3482 c-15 -16 -15 -19 2 -29 14 -9 18 -8 18 3 0 7 -4 11 -9 8
-12 -8 -10 10 4 24 7 7 10 12 7 12 -3 0 -13 -8 -22 -18z"/>
<path d="M897 3439 c7 -7 15 -10 18 -7 3 3 -2 9 -12 12 -14 6 -15 5 -6 -5z"/>
<path d="M971 3205 c0 -5 3 -16 8 -23 7 -11 9 -10 14 3 4 9 3 14 -2 10 -5 -3
-12 1 -14 7 -3 7 -6 9 -6 3z"/>
<path d="M977 3142 c3 -7 9 -10 12 -5 3 4 10 11 15 15 4 4 -1 6 -12 5 -12 -1
-18 -6 -15 -15z"/>
<path d="M929 3048 c-5 -18 -6 -38 -1 -34 7 8 12 36 6 36 -2 0 -4 -1 -5 -2z"/>
<path d="M950 3029 c0 -5 5 -7 10 -4 6 3 10 8 10 11 0 2 -4 4 -10 4 -5 0 -10
-5 -10 -11z"/>
<path d="M730 3002 c0 -6 5 -14 10 -17 6 -4 8 -11 4 -16 -3 -5 -10 -6 -16 -3
-7 4 -8 2 -4 -5 6 -9 11 -9 22 0 11 9 12 15 2 28 -7 9 -14 18 -15 20 -2 2 -3
-1 -3 -7z"/>
<path d="M560 2840 c-9 -6 -10 -10 -3 -10 6 0 15 5 18 10 8 12 4 12 -15 0z"/>
<path d="M566 2815 c-11 -8 -15 -15 -10 -15 6 0 19 7 30 15 10 8 15 14 9 14
-5 0 -19 -6 -29 -14z"/>
<path d="M521 2764 c0 -11 3 -14 6 -6 3 7 2 16 -1 19 -3 4 -6 -2 -5 -13z"/>
<path d="M5045 2719 c-4 -6 -4 -13 -1 -16 3 -4 6 -1 6 6 0 7 5 9 12 5 7 -4 8
-3 4 4 -9 15 -13 15 -21 1z"/>
<path d="M5067 2685 c2 -7 15 -17 28 -23 18 -9 23 -8 21 3 -1 8 -6 18 -11 22
-4 4 -5 2 0 -6 5 -9 3 -12 -6 -9 -8 3 -13 10 -12 15 1 5 -4 10 -12 10 -7 0
-11 -6 -8 -12z"/>
<path d="M5250 2621 c0 -6 4 -13 10 -16 6 -3 7 1 4 9 -7 18 -14 21 -14 7z"/>
<path d="M447 2569 c7 -7 15 -10 18 -7 3 3 -2 9 -12 12 -14 6 -15 5 -6 -5z"/>
<path d="M430 2500 c0 -5 5 -10 11 -10 5 0 7 5 4 10 -3 6 -8 10 -11 10 -2 0
-4 -4 -4 -10z"/>
<path d="M5230 2480 c0 -5 5 -10 11 -10 5 0 7 5 4 10 -3 6 -8 10 -11 10 -2 0
-4 -4 -4 -10z"/>
<path d="M5126 2359 c2 -4 -3 -10 -12 -13 -9 -4 -14 -9 -11 -13 4 -3 1 -13 -5
-21 -18 -21 -18 -40 -2 -46 11 -4 13 -2 6 11 -9 16 -2 30 40 74 16 17 16 18
-2 16 -10 -1 -17 -4 -14 -8z"/>
<path d="M5049 2145 c-1 -3 -2 -8 -3 -12 -1 -5 -5 -14 -9 -20 -5 -7 -5 -18 -2
-23 4 -6 1 -17 -5 -25 -9 -11 -9 -15 -1 -15 14 0 34 48 25 61 -6 11 8 12 22 2
5 -5 1 -1 -8 9 -13 12 -15 18 -6 21 10 4 10 6 1 6 -7 1 -14 -1 -14 -4z"/>
<path d="M553 2055 c0 -8 6 -16 14 -19 11 -4 11 -1 3 14 -13 24 -17 25 -17 5z"/>
<path d="M630 1991 c0 -5 7 -12 16 -15 14 -5 15 -4 4 9 -14 17 -20 19 -20 6z"/>
<path d="M630 1960 c0 -5 5 -10 11 -10 5 0 7 5 4 10 -3 6 -8 10 -11 10 -2 0
-4 -4 -4 -10z"/>
<path d="M753 1878 c-3 -7 -1 -8 5 -4 7 4 12 1 12 -6 0 -9 3 -9 10 2 6 9 10
10 10 3 0 -6 9 -15 20 -18 11 -3 20 -14 20 -23 0 -14 2 -15 10 -2 6 9 5 17 -1
21 -6 3 -11 10 -12 15 -1 5 -6 10 -12 10 -5 1 -12 3 -15 4 -20 7 -41 7 -47 -2z"/>
<path d="M710 1876 c0 -2 8 -10 18 -17 15 -13 16 -12 3 4 -13 16 -21 21 -21
13z"/>
<path d="M930 1781 c0 -6 5 -11 11 -11 5 0 7 -5 3 -11 -4 -8 0 -8 15 0 11 7
21 14 21 17 0 3 -5 2 -10 -1 -6 -4 -17 -1 -25 5 -11 9 -15 9 -15 1z"/>
<path d="M5250 1560 c0 -5 5 -10 10 -10 6 0 10 5 10 10 0 6 -4 10 -10 10 -5 0
-10 -4 -10 -10z"/>
<path d="M1370 1527 c0 -8 7 -14 15 -14 11 0 12 4 4 14 -6 7 -13 13 -15 13 -2
0 -4 -6 -4 -13z"/>
<path d="M1430 1495 c0 -8 4 -15 10 -15 5 0 7 7 4 15 -4 8 -8 15 -10 15 -2 0
-4 -7 -4 -15z"/>
<path d="M4950 1440 c0 -5 5 -10 11 -10 5 0 7 5 4 10 -3 6 -8 10 -11 10 -2 0
-4 -4 -4 -10z"/>
<path d="M4590 1340 c0 -5 9 -8 20 -7 21 1 18 10 -5 13 -8 1 -15 -2 -15 -6z"/>
<path d="M4410 1276 c0 -8 4 -17 9 -20 5 -4 7 3 4 14 -6 23 -13 26 -13 6z"/>
<path d="M1849 1247 c5 -5 7 -17 4 -26 -4 -14 -3 -14 6 -1 8 11 11 12 11 2 0
-7 5 -10 10 -7 9 6 14 -8 11 -28 -1 -4 10 0 24 9 27 18 32 26 13 22 -22 -4
-58 13 -58 26 0 7 -7 13 -15 13 -10 0 -12 -4 -6 -10z"/>
<path d="M4143 1205 c-3 -9 -3 -19 1 -22 3 -4 6 1 6 10 0 10 5 17 11 17 5 0 7
-5 3 -12 -4 -7 -3 -8 5 -4 12 8 6 26 -10 26 -5 0 -12 -7 -16 -15z"/>
<path d="M4209 1203 c-13 -16 -12 -17 4 -4 9 7 17 15 17 17 0 8 -8 3 -21 -13z"/>
<path d="M3876 1142 c-3 -5 1 -15 8 -21 11 -10 14 -9 12 3 -3 21 -13 29 -20
18z"/>
<path d="M3830 1100 c0 -5 5 -10 11 -10 5 0 7 5 4 10 -3 6 -8 10 -11 10 -2 0
-4 -4 -4 -10z"/>
<path d="M3691 1044 c0 -11 3 -14 6 -6 3 7 2 16 -1 19 -3 4 -6 -2 -5 -13z"/>
<path d="M3394 979 c-3 -6 -1 -16 5 -22 9 -9 10 -7 5 7 -6 15 -4 17 6 11 9 -5
11 -4 6 3 -9 15 -13 15 -22 1z"/>
<path d="M2305 969 c-4 -5 -4 -13 -1 -16 3 -4 6 0 6 8 0 11 2 11 10 -1 6 -9
10 -10 10 -3 0 17 -17 25 -25 12z"/>
<path d="M2336 926 c3 -8 14 -13 25 -11 10 2 21 0 24 -6 9 -13 27 -11 23 3 -3
7 -16 13 -29 13 -14 1 -31 5 -37 9 -8 4 -10 2 -6 -8z"/>
<path d="M2936 849 c2 -4 -4 -12 -13 -18 -10 -6 -13 -11 -6 -11 6 0 15 5 18
10 4 6 10 8 14 6 4 -3 8 1 8 8 0 7 -6 13 -13 13 -7 0 -11 -4 -8 -8z"/>
<path d="M3053 845 c0 -8 4 -12 9 -9 5 3 6 10 3 15 -9 13 -12 11 -12 -6z"/>
<path d="M2522 837 c-8 -10 -6 -13 7 -13 11 0 17 6 14 13 -3 7 -6 13 -8 13 -1
0 -7 -6 -13 -13z"/>
<path d="M2844 823 c-9 -7 -21 -10 -25 -7 -5 3 -6 -3 -2 -12 4 -11 8 -13 11
-6 2 7 10 12 18 12 8 0 14 5 14 11 0 5 5 7 10 4 8 -5 7 -12 -2 -23 -10 -12
-10 -14 -1 -8 7 4 17 15 22 24 7 14 5 18 -9 18 -10 0 -26 -6 -36 -13z"/>
<path d="M2765 800 c-4 -6 -9 -8 -13 -6 -10 6 -37 -17 -40 -34 -1 -10 2 -9 13
4 16 21 45 30 45 15 0 -5 5 -9 11 -9 8 0 9 4 0 13 -6 8 -8 17 -4 20 3 4 4 7 0
7 -3 0 -9 -5 -12 -10z"/>
<path d="M2620 760 c8 -5 20 -10 25 -10 6 0 3 5 -5 10 -8 5 -19 10 -25 10 -5
0 -3 -5 5 -10z"/>
<path d="M2747 759 c7 -7 15 -10 18 -7 3 3 -2 9 -12 12 -14 6 -15 5 -6 -5z"/>
</g>
</svg>
